<svg width="108" height="20" viewBox="0 0 108 20" fill="none" xmlns="http://www.w3.org/2000/svg">
<path d="M103.979 6.96986C103.987 8.72559 103.985 10.4421 104.051 12.1561C104.078 12.8822 104.571 13.2915 105.304 13.3249C105.69 13.3424 106.083 13.3281 106.466 13.2776C106.753 13.2398 106.861 13.3279 106.86 13.6009C106.858 14.1523 106.889 14.7063 106.84 15.2533C106.826 15.4186 106.616 15.6652 106.455 15.7029C105.208 15.9961 103.964 15.9541 102.806 15.3749C101.789 14.8666 101.301 13.9197 101.237 12.8415C101.134 11.081 101.148 9.31342 101.121 7.54871C101.109 6.81339 101.118 6.81296 100.364 6.81272C99.505 6.81245 98.6454 6.82115 97.7861 6.80839C97.4774 6.80381 97.2806 6.89622 97.128 7.18576C96.728 7.94471 96.3 8.68929 95.8679 9.43067C95.7139 9.69486 95.6976 9.92059 95.8476 10.1991C96.708 11.7965 97.5534 13.4021 98.4015 15.0061C98.482 15.1583 98.5464 15.3192 98.6538 15.5536C97.5929 15.5536 96.6118 15.5688 95.6323 15.5352C95.5031 15.5307 95.3461 15.2955 95.2639 15.1353C94.7157 14.068 94.1848 12.9918 93.6468 11.9191C93.5753 11.7766 93.4959 11.6381 93.3712 11.4073C93.0298 12.094 92.7196 12.7078 92.4185 13.3262C92.1135 13.9525 91.8299 14.5897 91.5086 15.2074C91.4309 15.3569 91.2451 15.5467 91.1039 15.5511C90.1362 15.5812 89.1672 15.5669 88.081 15.5669C88.5335 14.7141 88.9391 13.9494 89.3448 13.1847C89.8992 12.14 90.4658 11.1014 90.9936 10.0434C91.0654 9.89953 90.9928 9.63221 90.9035 9.46721C90.0404 7.87195 89.1592 6.28642 88.2839 4.69778C88.2454 4.62798 88.2126 4.55506 88.1476 4.42404C88.3165 4.4068 88.4498 4.38206 88.5831 4.38142C89.3615 4.37768 90.1405 4.39786 90.918 4.37173C91.2954 4.35905 91.5073 4.48418 91.6703 4.82989C92.1197 5.783 92.6043 6.71957 93.0774 7.66146C93.1546 7.81524 93.2442 7.96283 93.3775 8.20206C93.6595 7.70392 93.9065 7.2946 94.1271 6.87153C94.457 6.23898 94.7933 5.60769 95.0786 4.95476C95.2669 4.52375 95.5227 4.35864 96.0029 4.36835C97.5104 4.39881 99.0192 4.36286 100.527 4.38922C101.005 4.39758 101.148 4.23227 101.127 3.7724C101.096 3.07654 101.133 2.37779 101.114 1.68103C101.104 1.3126 101.218 1.14721 101.611 1.16205C102.226 1.18527 102.843 1.18118 103.459 1.16323C103.812 1.15293 103.955 1.27883 103.946 1.64123C103.929 2.403 103.952 3.16562 103.938 3.92752C103.931 4.26404 104.063 4.38996 104.397 4.3834C105.11 4.36937 105.824 4.39786 106.537 4.37274C106.949 4.3582 107.084 4.51932 107.061 4.91409C107.037 5.33428 107.028 5.75929 107.063 6.17804C107.103 6.65862 106.95 6.85389 106.442 6.82232C105.796 6.7822 105.145 6.80487 104.496 6.81808C104.329 6.82149 104.162 6.89067 103.979 6.96986Z" fill="black"/>
<path d="M81.8553 4.08784C83.1764 4.03617 84.3433 4.32432 85.3473 5.15299C85.9677 5.66508 86.3276 6.34418 86.6227 7.07038C87.0955 8.23404 87.0142 9.45551 87.0023 10.6697C86.9986 11.0468 86.7142 10.996 86.4769 10.9963C84.4657 10.9987 82.4546 10.9977 80.4435 10.9979C80.3137 10.9979 80.184 11.0012 80.0543 11.0002C79.7694 10.9981 79.6979 11.1449 79.7346 11.409C80.006 13.3624 81.8486 14.2736 83.5394 13.2403C83.8803 13.032 84.1265 12.6099 84.3175 12.2358C84.4498 11.9764 84.565 11.8622 84.8492 11.8697C85.4002 11.8843 85.9526 11.8904 86.5032 11.8683C86.8816 11.8532 87.0387 11.9896 87.0095 12.3737C86.9029 13.7778 86.1373 14.7394 84.9058 15.2899C83.2411 16.034 81.4973 16.1114 79.7967 15.4392C78.1882 14.8034 77.3092 13.5119 77.0278 11.8312C76.7881 10.3999 76.7402 8.95525 77.1532 7.54537C77.8012 5.33356 79.4983 4.0933 81.8553 4.08784ZM81.1199 8.95402C81.9949 8.95379 82.8701 8.96581 83.7444 8.94128C83.8903 8.93718 84.1605 8.76578 84.1553 8.68593C84.1059 7.93012 83.9433 7.19214 83.2888 6.712C82.5359 6.15975 81.7015 6.17347 80.8977 6.57048C80.0634 6.98252 79.8564 7.80457 79.7395 8.63856C79.7272 8.72647 79.9316 8.92012 80.0529 8.93673C80.3711 8.98028 80.699 8.95304 81.1199 8.95402Z" fill="black"/>
<path d="M41.6543 8.56895C41.885 6.75579 42.5698 5.26361 44.3104 4.52151C46.3582 3.6484 49.5121 3.89385 50.9102 6.09823C51.4727 6.98517 51.7058 7.99023 51.7495 9.00824C51.7915 9.98738 51.7697 10.9944 51.5871 11.9532C51.0874 14.5775 49.4693 15.6994 47.0324 15.8536C45.8159 15.9306 44.6367 15.7247 43.6034 15.0162C42.3933 14.1866 41.8412 12.949 41.6833 11.5587C41.573 10.588 41.6564 9.5953 41.6543 8.56895ZM44.9627 12.4959C45.0348 12.5833 45.1017 12.6756 45.1798 12.7572C46.0446 13.659 47.8672 13.5222 48.3983 12.4729C49.1966 10.8957 49.1752 9.25546 48.525 7.64156C48.2084 6.85574 47.477 6.5349 46.6746 6.53876C45.8975 6.5425 45.1818 6.82484 44.8697 7.61492C44.6538 8.16158 44.4927 8.74758 44.4218 9.32997C44.2912 10.4025 44.4012 11.4597 44.9627 12.4959Z" fill="black"/>
<path d="M53.6253 6.82618C53.5774 6.00724 53.5294 5.23527 53.4774 4.39687C54.2766 4.39687 55.0322 4.38464 55.7864 4.4124C55.8804 4.41585 56.0078 4.61885 56.0474 4.75105C56.1247 5.00889 56.1509 5.28206 56.2017 5.56844C56.6068 5.25795 56.9584 4.92482 57.366 4.6879C58.6314 3.95235 59.9945 3.83267 61.3391 4.36784C62.6634 4.89488 63.2121 6.06004 63.2427 7.39942C63.301 9.95964 63.2538 12.5222 63.2665 15.0836C63.2685 15.479 63.1093 15.5895 62.7443 15.5768C62.1775 15.5571 61.6081 15.5466 61.0426 15.5796C60.5793 15.6067 60.4239 15.4514 60.4286 14.9772C60.4502 12.805 60.401 10.6316 60.4495 8.46022C60.4895 6.66954 59 6.19097 57.7222 6.76225C56.8725 7.1421 56.3847 7.69412 56.4245 8.74355C56.5032 10.8157 56.4361 12.8931 56.4567 14.9681C56.4613 15.4304 56.3276 15.6102 55.8522 15.5799C55.3032 15.5449 54.7489 15.5473 54.1995 15.5794C53.7492 15.6057 53.6143 15.4402 53.6171 14.9955C53.6338 12.2881 53.6254 9.5806 53.6253 6.82618Z" fill="black"/>
<path d="M73.5103 4.53239C74.7757 5.27018 75.0864 6.48494 75.1167 7.75686C75.1746 10.1875 75.1262 12.6206 75.1407 15.0525C75.1432 15.4633 74.9948 15.594 74.5998 15.5777C74.0171 15.5536 73.4314 15.5481 72.8494 15.5791C72.4063 15.6027 72.3014 15.4172 72.3043 15.0077C72.3197 12.8839 72.3088 10.7598 72.3128 8.63584C72.3142 7.83993 72.2113 7.06951 71.3868 6.70985C70.5026 6.32414 69.6752 6.56551 68.9322 7.1336C68.4933 7.46916 68.2993 7.88913 68.3081 8.47302C68.3408 10.6452 68.3114 12.8181 68.3292 14.9906C68.3328 15.4289 68.2087 15.6064 67.7515 15.5795C67.186 15.5463 66.6159 15.5497 66.0499 15.5787C65.623 15.6006 65.4883 15.4467 65.491 15.021C65.507 12.5242 65.5133 10.0271 65.4906 7.53041C65.483 6.6923 65.3942 5.8538 65.3167 5.01787C65.2666 4.47786 65.325 4.38408 65.8627 4.38019C66.3167 4.37691 66.7726 4.40555 67.2241 4.37226C67.6918 4.33778 67.9258 4.50145 67.9388 4.98408C67.9439 5.17037 68.0138 5.35492 68.0662 5.59575C69.6734 4.0451 71.456 3.63942 73.5103 4.53239Z" fill="black"/>
<path d="M31.6551 14.1815C30.8702 13.1233 30.5851 11.9405 30.5634 10.6853C30.5424 9.47213 30.529 8.26483 30.9308 7.0832C31.6002 5.11427 33.0928 4.24692 34.901 4.10119C36.0185 4.01114 37.1323 4.08984 38.1681 4.62707C39.4647 5.2996 40.3148 6.81857 40.1978 8.28233C40.1767 8.54561 40.0788 8.66397 39.8138 8.66181C39.1655 8.65652 38.5171 8.65654 37.8688 8.66232C37.6164 8.66457 37.5021 8.57506 37.4624 8.30387C37.29 7.12753 36.786 6.59192 35.697 6.54082C34.7841 6.49798 33.92 6.87523 33.6233 8.01053C33.244 9.46167 33.1644 10.9258 33.8148 12.3291C34.1785 13.1138 35.0813 13.4757 36.0543 13.3176C36.852 13.1879 37.3355 12.6675 37.4621 11.7498C37.4992 11.4812 37.6074 11.3838 37.8633 11.3861C38.4954 11.392 39.1279 11.3993 39.7597 11.3831C40.1122 11.374 40.1903 11.5425 40.1994 11.8582C40.257 13.8643 38.8029 15.4995 36.7491 15.767C35.7906 15.8919 34.8481 15.9058 33.9093 15.6573C33.0066 15.4184 32.2329 14.9821 31.6551 14.1815Z" fill="black"/>
<path fill-rule="evenodd" clip-rule="evenodd" d="M8.63253 0.542233C7.88387 -0.191307 6.6823 -0.179046 5.94876 0.569619C5.32342 1.20786 5.24009 2.17525 5.69297 2.90121L1.08694 7.44371C-0.347617 8.85848 -0.364314 11.1681 1.04962 12.6035L6.24431 17.8768C6.97985 18.6235 8.18145 18.6326 8.92814 17.897C9.67483 17.1615 9.68387 15.9599 8.94832 15.2132L3.85602 10.0437L8.36652 5.59546L10.7937 7.97358C11.5423 8.70712 12.7439 8.69486 13.4774 7.94619C14.211 7.19753 14.1987 5.99597 13.45 5.26243L8.63253 0.542233Z" fill="url(#paint0_linear_511_6211)"/>
<path fill-rule="evenodd" clip-rule="evenodd" d="M16.2438 19.4578C16.9925 20.1913 18.194 20.179 18.9276 19.4304C19.5529 18.7921 19.6362 17.8248 19.1834 17.0988L23.7894 12.5563C25.224 11.1415 25.2407 8.83191 23.8267 7.39655L18.632 2.12316C17.8965 1.37647 16.6949 1.36743 15.9482 2.10298C15.2015 2.83853 15.1925 4.04012 15.928 4.78681L21.0203 9.95626L16.5098 14.4045L14.0827 12.0264C13.334 11.2929 12.1324 11.3051 11.3989 12.0538C10.6654 12.8025 10.6776 14.004 11.4263 14.7376L16.2438 19.4578Z" fill="url(#paint1_linear_511_6211)"/>
<defs>
<linearGradient id="paint0_linear_511_6211" x1="2" y1="1.5" x2="12" y2="13" gradientUnits="userSpaceOnUse">
<stop stop-color="#3AE7FF"/>
<stop offset="1" stop-color="#9C21FF"/>
</linearGradient>
<linearGradient id="paint1_linear_511_6211" x1="14.5" y1="7.5" x2="24.5" y2="16.5" gradientUnits="userSpaceOnUse">
<stop stop-color="#A70FFD"/>
<stop offset="1" stop-color="#ED836E"/>
</linearGradient>
</defs>
</svg>
