<?xml version="1.0" encoding="utf-8"?>
<!-- Generator: Adobe Illustrator 24.3.0, SVG Export Plug-In . SVG Version: 6.00 Build 0)  -->
<svg version="1.1" id="layer" xmlns="http://www.w3.org/2000/svg" xmlns:xlink="http://www.w3.org/1999/xlink" x="0px" y="0px"
	 viewBox="0 0 620.6 138" style="enable-background:new 0 0 620.6 138;" xml:space="preserve">
<style type="text/css">
	.st0{fill:#291A41;stroke:#291A41;stroke-width:1.8228;}
	.st1{fill:none;stroke:#291A41;stroke-width:11.4577;}
	.st2{fill:#291A41;}
</style>
<path class="st0" d="M569.8,41c-0.8,0-1.2,0.4-2,0.8c-0.5,0.6-0.8,1.3-0.8,2.1V105c0,0.8,0.4,1.2,0.8,2.1c0.4,0.4,1.2,0.8,2,0.8
	s1.2-0.4,2-0.8c0.5-0.6,0.8-1.3,0.8-2.1V77.2h15.6l14.3,29.5c0.4,0.8,1.2,1.7,2.5,1.7c0.4,0,0.8,0,1.2-0.4c0.8-0.4,1.2-0.8,1.2-1.7
	c0.4-0.8,0-1.2,0-2.1l-13.1-27c4.5-0.8,8.6-2.9,11.5-6.2c3.3-3.3,4.5-7.1,4.5-11.6c0-5-2-9.1-5.7-12.9c-3.7-3.3-8.2-5.4-13.5-5.4
	C591.1,41,569.8,41,569.8,41z M600.5,67.6c-2.5,2.5-5.7,3.7-9.4,3.7h-18.4V46.4h18c3.7,0,7,1.2,9.8,3.7c2.9,2.5,4.1,5.4,4.1,8.7
	C604.6,62.2,603,65.1,600.5,67.6z M542,107.9c0.8,0,1.2-0.4,2-0.8c0.5-0.6,0.8-1.3,0.8-2.1c0-0.8-0.4-1.2-0.8-2.1
	c-0.6-0.5-1.3-0.8-2-0.8h-34V77.2h25.4c0.8,0,1.2-0.4,2-0.8c0.5-0.6,0.8-1.3,0.8-2.1c0-0.8-0.4-1.2-0.8-2.1c-0.6-0.5-1.3-0.8-2-0.8
	H508V46.5h34c0.8,0,1.2-0.4,2-0.8c0.5-0.6,0.8-1.3,0.8-2.1c0-0.8-0.4-1.2-0.8-2.1c-0.6-0.5-1.3-0.8-2-0.8h-36.8
	c-0.8,0-1.2,0.4-2,0.8c-0.5,0.6-0.8,1.3-0.8,2.1V105c0,0.8,0.4,1.2,0.8,2.1c0.4,0.4,1.2,0.8,2,0.8H542L542,107.9z M440.1,106.7
	c0.5-0.6,0.8-1.3,0.8-2.1V86.7l8.2-8.7l27.4,29.1c0.4,0.4,1.2,0.8,2,0.8s1.2-0.4,2-0.8c0.5-0.6,0.8-1.3,0.8-2.1
	c0-0.8-0.4-1.2-0.8-2.1l-27.4-29.5l26.6-27.8c0.5-0.6,0.8-1.3,0.8-2.1c0-0.8-0.4-1.2-0.8-2.1c-0.6-0.5-1.3-0.8-2.1-0.8
	c-0.8,0-1.2,0.4-2,0.8l-34.8,37.4V43.5c0-0.8-0.4-1.2-0.8-2.1c-0.6-0.5-1.3-0.8-2-0.8c-0.8,0-1.2,0.4-2,0.8c0,0.8-0.4,1.2-0.4,2.1
	v61.1c0,0.8,0.4,1.2,0.8,2.1c0.4,0.4,1.2,0.8,2,0.8C438.8,107.5,439.7,107.1,440.1,106.7L440.1,106.7z M362.3,107.9
	c1.2,0,2-0.4,2.5-1.7l5.7-14.1h33.6l5.7,14.1c0.4,1.2,1.2,1.7,2.5,1.7c0.4,0,0.8,0,1.2-0.4c0.7-0.3,1.3-0.9,1.6-1.7
	c0.4-0.8,0.4-1.2,0-2.1l-6.5-15.8l-18.8-45.7c0,0,0-0.4-0.4-0.4v-0.4H389c-0.4-0.4-0.8-0.4-0.8-0.4h-0.8h-0.8c-0.4,0-0.8,0-0.8,0.4
	h-0.4v0.4c0,0,0,0.4-0.4,0.4L366,88l-6.6,15.8c-0.4,0.8-0.4,1.2,0,2.1c0.4,0.8,0.8,1.2,1.6,1.7C361.5,107.9,361.9,107.9,362.3,107.9
	L362.3,107.9z M372.5,86.7L387.2,51l14.7,35.7H372.5z M277.2,53.9l25,41.5v0.4h4.9v-0.4l25-41.5v51.5c0,0.8,0.4,1.2,0.8,2.1
	c0.4,0.4,1.2,0.8,2,0.8s1.2-0.4,2-0.8c0.5-0.6,0.8-1.3,0.8-2.1V43.9c0-1.2-0.8-2.5-2-2.5c-1.2-0.4-2.5,0-3.3,1.2l-27.8,45.7
	l-27.4-46.1c-0.8-1.2-2-1.7-3.3-1.2c-1.2,0.4-2,1.2-2,2.9v61.5c0,0.8,0.4,1.2,0.8,2.1c0.4,0,1.2,0.4,2,0.4s1.2-0.4,2-0.8
	c0.5-0.6,0.8-1.3,0.8-2.1V53.9H277.2L277.2,53.9z"/>
<path class="st1" d="M88.1,117.1V68c0-3.5-1.7-6.7-4.7-8.7L24.1,20c-2.4-1.6-5.6-0.9-7.2,1.5c-0.6,0.9-0.9,1.9-0.9,2.9v92.8"/>
<path class="st1" d="M115.9,117.1V68c0-3.5,1.7-6.7,4.7-8.7L179.9,20c2.4-1.6,5.6-0.9,7.2,1.5c0.6,0.9,0.9,1.9,0.9,2.9v92.8"/>
<path class="st2" d="M16.1,109.4L16.1,109.4c3.2,0,5.7,2.6,5.7,5.7v4.2c0,3.2-2.6,5.7-5.7,5.7l0,0c-3.2,0-5.7-2.6-5.7-5.7v-4.2
	C10.4,111.9,12.9,109.4,16.1,109.4z"/>
<path class="st2" d="M115.9,109.4L115.9,109.4c3.2,0,5.7,2.6,5.7,5.7v4.2c0,3.2-2.6,5.7-5.7,5.7l0,0c-3.2,0-5.7-2.6-5.7-5.7v-4.2
	C110.1,111.9,112.7,109.4,115.9,109.4z"/>
<path class="st2" d="M187.8,109.4L187.8,109.4c3.2,0,5.7,2.6,5.7,5.7v4.2c0,3.2-2.6,5.7-5.7,5.7l0,0c-3.2,0-5.7-2.6-5.7-5.7v-4.2
	C182.1,111.9,184.7,109.4,187.8,109.4z"/>
<path class="st2" d="M88.1,109.4L88.1,109.4c3.2,0,5.7,2.6,5.7,5.7v4.2c0,3.2-2.6,5.7-5.7,5.7l0,0c-3.2,0-5.7-2.6-5.7-5.7v-4.2
	C82.3,111.9,84.9,109.4,88.1,109.4z"/>
</svg>
