<?xml version="1.0" encoding="utf-8"?>
<!-- Generator: Adobe Illustrator 24.1.0, SVG Export Plug-In . SVG Version: 6.00 Build 0)  -->
<svg version="1.1" id="Layer_1" xmlns="http://www.w3.org/2000/svg" xmlns:xlink="http://www.w3.org/1999/xlink" x="0px" y="0px"
	 viewBox="0 0 3201 700" style="enable-background:new 0 0 3201 700;" xml:space="preserve">
<style type="text/css">
	.st0{fill:#020202;}
</style>
<g>
	<path class="st0" d="M95,171.3c0-21.2-1.3-41.7-3.3-62.9h94.6l3.3,43c10.6-14.5,36.4-50.3,103.2-50.3c76.8,0,98.6,47,105.2,62.9
		c27.8-53.6,72.8-62.2,107.2-62.2c67.5,0,94.7,40.4,101.9,53.6c17.9,29.1,16.5,69.5,16.5,98.6v183.1h-98.6v-191
		c0-35.8-5.3-75.5-56.3-75.5c-58.9,0-60.2,54.9-60.2,104.6v161.9h-98.6v-193c0-25.8-0.7-73.5-54.9-73.5c-61.6,0-61.6,53-61.6,75.5
		v191H95V171.3z"/>
	<path class="st0" d="M91.7,510.7h532.2v81.5H91.7V510.7z"/>
	<path class="st0" d="M2780.2,588.7h329.1v-79.8h-226.1V379.2h204.8v-78.5h-204.8V186.4H3102V108h-321.8V588.7z M2407.2,588.7h311.2
		v-81.8h-206.1V108.6h-105.1V588.7z M2061.5,378.6h59.2c49.2,0,111,0,111,68.5c0,64.5-53.2,64.5-100.4,64.5h-69.8L2061.5,378.6z
		 M2061.5,182.4h69.8c33.9,0,84.4,0,84.4,59.8c0,61.8-53.2,61.8-82.4,61.8h-71.8V182.4z M1963.1,588.7h179.5c18.6,0,83.8,0,121-19.3
		c37.2-18.6,70.5-56.5,70.5-113c0-50.5-28.6-103.7-101.7-117V338c27.9-7.3,51.2-28.6,54.5-32.6c24.6-22.6,27.9-53.9,27.9-71.8
		c0-27.9-10-74.5-53.9-102.4c-36.6-22.6-90.4-22.6-118.4-22.6h-179.5V588.7z M1602.1,407.2l71.1-204.8l66.4,204.8H1602.1z
		 M1614.7,108l-173.5,480.7h98.4l35.9-103.7h190.2l34.6,103.7H1904L1737,108H1614.7z M1247,588.7h103.7V187.8h143V108H1104v79.8
		H1247V588.7z M687.8,435.1c0.7,46.5,2,164.9,186.2,164.9c133,0,204.8-69.8,204.8-156.2c0-93.8-81.8-116.4-164.9-136.3
		c-69.1-17.3-104.4-25.3-104.4-69.8c0-39.2,31.2-65.2,79.1-65.2c71.2,0,76.5,56.5,77.8,73.1h99.1c0-15.9,0-54.5-27.3-89.1
		c-35.9-45.2-95.1-56.5-144.9-56.5c-133.6,0-190.2,69.8-190.2,148.9c0,83.1,62.5,117,176.9,145.6c61.2,14.6,91.1,21.9,91.1,64.5
		c0,40.5-35.2,67.2-91.1,67.2c-88.4,0-87.1-68.5-87.1-91.1L687.8,435.1z"/>
</g>
</svg>
