<svg width="150" height="24" viewBox="0 0 150 24" fill="none" xmlns="http://www.w3.org/2000/svg">
<path fill-rule="evenodd" clip-rule="evenodd" d="M11.9414 5.00001C13.261 5.00001 14.5266 4.47321 15.4597 3.53553C16.3928 2.59785 16.917 1.32608 16.917 0H6.96583C6.96583 1.32608 7.49006 2.59785 8.42314 3.53553C9.35627 4.47321 10.6218 5.00001 11.9414 5.00001ZM0 17V6.99999C1.31961 6.99999 2.58518 7.52679 3.51828 8.46446C4.4514 9.40213 4.97559 10.6739 4.97559 12C4.97559 13.3261 4.4514 14.5979 3.51828 15.5355C2.58518 16.4732 1.31961 17 0 17ZM11.9414 17C14.6894 17 16.917 14.7614 16.917 12C16.917 9.23859 14.6894 6.99999 11.9414 6.99999C9.1935 6.99999 6.96583 9.23859 6.96583 12C6.96583 14.7614 9.1935 17 11.9414 17ZM18.9073 12C18.9073 13.3261 19.4315 14.5979 20.3646 15.5355C21.2977 16.4732 22.5633 17 23.8829 17V6.99999C22.5633 6.99999 21.2977 7.52679 20.3646 8.46446C19.4315 9.40213 18.9073 10.6739 18.9073 12ZM23.8829 0V5.00001C22.5633 5.00001 21.2977 4.47321 20.3646 3.53553C19.4315 2.59785 18.9073 1.32608 18.9073 0H23.8829ZM0 5.00001C1.31961 5.00001 2.58518 4.47321 3.51828 3.53553C4.4514 2.59785 4.97559 1.32608 4.97559 0H0V5.00001ZM8.42314 20.4645C9.35627 19.5268 10.6218 19 11.9414 19C13.261 19 14.5266 19.5268 15.4597 20.4645C16.3928 21.4021 16.917 22.6739 16.917 24H6.96583C6.96583 22.6739 7.49006 21.4021 8.42314 20.4645ZM18.9073 24H23.8829V19C22.5633 19 21.2977 19.5268 20.3646 20.4645C19.4315 21.4021 18.9073 22.6739 18.9073 24ZM0 24V19C1.31961 19 2.58518 19.5268 3.51828 20.4645C4.4514 21.4021 4.97559 22.6739 4.97559 24H0Z" fill="black"/>
<path fill-rule="evenodd" clip-rule="evenodd" d="M123.625 4.66481C123.836 4.58739 124.061 4.55194 124.287 4.56061C124.512 4.5542 124.737 4.59122 124.947 4.66945C125.157 4.74768 125.349 4.86552 125.51 5.01597C125.671 5.16642 125.799 5.3464 125.887 5.54519C125.974 5.74398 126.018 5.95752 126.017 6.17311C126.017 6.61203 125.835 7.03297 125.511 7.34333C125.186 7.65369 124.746 7.82805 124.287 7.82805C123.828 7.82805 123.388 7.65369 123.064 7.34333C122.739 7.03297 122.557 6.61203 122.557 6.17311C122.553 5.95689 122.596 5.74233 122.683 5.5425C122.769 5.34268 122.897 5.16179 123.059 5.01089C123.221 4.85998 123.414 4.74223 123.625 4.66481ZM38.3631 8.46453C36.8323 8.46453 35.9449 9.03739 35.9449 10.0558C35.9449 11.172 37.319 11.5165 38.9469 11.9245C41.3143 12.518 44.2183 13.2459 44.2117 16.6782C44.2117 19.4259 41.8822 21.1869 38.5323 21.1869C35.3154 21.1869 32.5755 19.2349 32.2982 16.0736H35.3015C35.398 16.8224 35.7838 17.5097 36.3832 18.0005C36.9825 18.4912 37.752 18.7499 38.5406 18.7257C40.1158 18.7257 41.2028 18.0573 41.2028 16.8692C41.2028 15.5216 39.6539 15.0969 37.8946 14.6145C35.5818 13.9803 32.9055 13.2465 32.9055 10.1858C32.9055 7.67949 35.3126 6.00598 38.3631 6.00598C41.2028 6.00598 43.6654 7.51241 44.0869 10.3979H41.1141C40.859 9.37951 39.8495 8.46453 38.3631 8.46453ZM45.7842 15.1507C45.7842 11.6047 48.4575 9.10376 52.1625 9.10376C55.8452 9.10376 58.5407 11.6074 58.5407 15.1507C58.5407 18.6939 55.8785 21.1975 52.1625 21.1975C48.4464 21.1975 45.7842 18.6965 45.7842 15.1507ZM48.6572 15.1507C48.6572 17.3572 50.0992 18.8849 52.1625 18.8849C54.2257 18.8849 55.6677 17.3572 55.6677 15.1507C55.6677 12.944 54.2257 11.4164 52.1625 11.4164C50.0992 11.4164 48.6572 12.944 48.6572 15.1507ZM75.3684 9.10376C73.7045 9.10376 72.1293 9.95246 71.131 11.5649C70.7317 10.0771 69.223 9.10376 67.3151 9.10376C65.4959 9.10376 64.0538 10.1434 63.5436 11.374V9.27348H60.726V21.0278H63.5436V15.9543C63.5436 13.1775 64.6528 11.5013 66.4055 11.5013C67.8253 11.5013 68.7571 12.4773 68.7571 13.9625V21.0278H71.5968V15.9543C71.5968 13.1775 72.684 11.5013 74.4588 11.5013C75.8454 11.5013 76.8104 12.4773 76.8104 13.9625V21.0278H79.628V13.2809C79.628 10.7507 77.9197 9.10376 75.3684 9.10376ZM92.6506 11.5649C93.649 9.95246 95.2241 9.10376 96.8881 9.10376C99.4396 9.10376 101.148 10.7507 101.148 13.2809V21.0278H98.3303V13.9625C98.3303 12.4773 97.3653 11.5013 95.9785 11.5013C94.2037 11.5013 93.1168 13.1775 93.1168 15.9543V21.0278H90.2767V13.9625C90.2767 12.4773 89.3451 11.5013 87.9253 11.5013C86.1725 11.5013 85.0632 13.1775 85.0632 15.9543V21.0278H82.246V9.27348H85.0632V11.374C85.5734 10.1434 87.0157 9.10376 88.8349 9.10376C90.743 9.10376 92.2512 10.0771 92.6506 11.5649ZM109.392 9.08257C105.332 9.08257 103.358 12.0954 103.358 15.1507C103.358 18.2059 105.51 21.2188 109.526 21.2188C112.388 21.2188 114.794 19.9882 115.316 17.1663H112.432C112.099 18.312 111.101 18.9697 109.614 18.9697C107.673 18.9697 106.353 17.7392 106.131 15.7448H115.338C115.338 15.7448 115.405 15.1295 115.405 14.599C115.391 11.9893 113.505 9.08257 109.392 9.08257ZM106.242 13.7689C106.619 12.053 107.751 11.0743 109.392 11.0743C111.234 11.0743 112.321 12.22 112.388 13.7689H106.242ZM117.454 6.00598H120.272V21.0277H117.454V6.00598ZM125.707 9.27348H122.89V21.0278H125.707V9.27348ZM133.938 9.08257C129.878 9.08257 127.903 12.0954 127.903 15.1507C127.903 18.2059 130.055 21.2188 134.071 21.2188C136.933 21.2188 139.34 19.9882 139.861 17.1663H136.977C136.645 18.312 135.646 18.9697 134.16 18.9697C132.218 18.9697 130.898 17.7392 130.677 15.7448H139.897C139.897 15.7448 139.964 15.1295 139.964 14.599C139.95 11.9893 138.064 9.08257 133.938 9.08257ZM130.788 13.7689C131.164 12.053 132.296 11.0743 133.938 11.0743C135.779 11.0743 136.866 12.22 136.933 13.7689H130.788ZM144.964 11.9257C145.474 10.2071 147.05 9.08257 148.691 9.08257C149.135 9.08257 149.734 9.15945 150 9.31331V11.9044C149.475 11.7157 148.919 11.6143 148.358 11.6048C146.495 11.6048 144.964 13.1987 144.964 16.6783V21.0278H142.147V9.27353H144.964V11.9257Z" fill="black"/>
</svg>
