<?xml version="1.0" encoding="UTF-8"?>
<svg id="Layer_2" data-name="Layer 2" xmlns="http://www.w3.org/2000/svg" xmlns:xlink="http://www.w3.org/1999/xlink" viewBox="0 0 1607.34 257.52">
  <defs>
    <style>
      .cls-1 {
        fill: url(#linear-gradient);
      }

      .cls-2 {
        fill: url(#linear-gradient-3);
      }

      .cls-3 {
        fill: url(#linear-gradient-2);
      }
    </style>
    <linearGradient id="linear-gradient" x1="-10.62" y1="176.8" x2="192.47" y2="89.18" gradientTransform="translate(0 259.52) scale(1 -1)" gradientUnits="userSpaceOnUse">
      <stop offset="0" stop-color="#f213a4"/>
      <stop offset=".15" stop-color="#e011a7"/>
      <stop offset=".46" stop-color="#b20daf"/>
      <stop offset=".88" stop-color="#6806bb"/>
      <stop offset="1" stop-color="#5204bf"/>
    </linearGradient>
    <linearGradient id="linear-gradient-2" x1="124.48" x2="327.56" xlink:href="#linear-gradient"/>
    <linearGradient id="linear-gradient-3" x1="256.99" y1="176.8" x2="460.08" y2="89.18" xlink:href="#linear-gradient"/>
  </defs>
  <g id="Layer_1-2" data-name="Layer 1">
    <g>
      <g>
        <path d="m561.7,27.24h-40.53v54.57h-18.83v38.14h18.83v50.33c0,29.93,24.06,54.04,53.34,54.04h18.04v-40.53h-18.04c-7.06,0-12.81-5.83-12.81-13.24v-50.33h31.12v-38.14h-31.12V27.24Z"/>
        <path d="m691.91,78.89c-18.83,0-33.73,7.95-39.48,20.4V27.24h-41.57v197.34h41.57v-79.99c0-16.69,10.72-28.34,25.89-28.34s24.06,10.07,24.06,27.02v81.58h41.57v-86.88c0-37.08-18.83-59.07-52.03-59.07Z"/>
        <path d="m784.48,21.94c-13.07,0-23.79,10.6-23.79,24.1s10.72,23.84,23.79,23.84,23.79-10.6,23.79-23.84-10.72-24.1-23.79-24.1Z"/>
        <path d="m805.4,82.07h-41.58v142.77h41.58V82.07Z"/>
        <path d="m864.75,101.4v-19.6h-41.58v142.77h41.58v-69.66c0-23.57,13.86-37.08,37.65-37.08,4.98,0,9.68.53,13.86,1.32v-39.73c-4.45-.53-8.1-.79-10.98-.79-19.09.26-34.26,8.48-40.53,22.78Z"/>
        <path d="m1033.14,100.61c-4.19-12.45-20.66-21.19-41.84-21.19-19.87,0-36.61,7.15-49.94,21.46-13.08,14.04-19.88,31.79-19.88,52.45s6.8,38.14,19.88,52.71c13.33,14.04,30.07,21.19,49.94,21.19,21.18,0,37.65-8.74,41.84-21.19v18.81h41.57V27.24h-41.57v73.37Zm-8.37,78.14c-7.06,6.89-15.69,10.07-25.89,10.07s-18.56-3.44-25.37-10.07c-7.05-7.15-10.46-15.63-10.46-25.43s3.4-18.28,10.46-25.16c7.06-7.15,15.43-10.59,25.37-10.59,10.46,0,19.09,3.44,25.89,10.59,7.32,6.89,10.98,15.36,10.98,25.16s-3.66,18.28-10.98,25.43Z"/>
        <path d="m1232.39,150.41l-37.66-67.81-37.65,67.81-25.1-68.34h-40.79l57.79,150.98,45.76-82.11,45.76,82.11,58.04-150.98h-40.79l-25.36,68.34Z"/>
        <path d="m1367.04,78.62c-21.44,0-39.48,6.89-53.6,20.66-13.86,13.51-20.92,31.52-20.92,53.77v1.32c0,22.25,7.06,40.26,20.92,53.77,14.38,13.24,32.68,20.13,55.69,20.13,21.44,0,38.96-4.24,52.3-12.98v-36.82c-13.07,9.27-29.81,13.77-49.95,13.77-21.96,0-36.34-10.86-37.13-27.81h103.29c.52-4.24.79-9.01.79-13.77,0-20.4-6.8-37.35-19.88-51.12-13.07-14.04-30.59-20.93-51.51-20.93Zm-32.68,58.54c.26-6.62,3.66-12.18,9.93-16.69,6.54-4.5,13.86-6.89,22.75-6.89,16.47,0,29.29,10.86,29.29,23.57h-61.97Z"/>
        <path d="m1587.21,100.87c-13.07-14.3-29.81-21.46-49.68-21.46-21.18,0-37.65,8.74-41.83,21.19V27.24h-41.58v197.34h41.58v-18.81c4.18,12.45,20.66,21.19,41.83,21.19,19.87,0,36.61-7.15,49.68-21.19,13.34-14.57,20.13-32.05,20.13-52.71s-6.8-37.88-20.13-52.18Zm-31.9,77.88c-7.06,6.89-15.43,10.07-25.37,10.07-10.46,0-19.09-3.44-26.14-10.07-7.06-7.15-10.72-15.63-10.72-25.43s3.66-18.28,10.72-25.16c7.32-7.15,15.94-10.59,26.14-10.59s18.57,3.44,25.37,10.59c7.05,6.89,10.46,15.36,10.46,25.16s-3.4,18.28-10.46,25.43Z"/>
      </g>
      <g>
        <path class="cls-1" d="m1.13,21.67C-3,11.25,4.69,0,15.94,0h69.86c6.56,0,12.38,3.91,14.82,9.95l55.6,138.75c1.5,3.72,1.5,7.9,0,11.72l-34.97,87.13c-5.34,13.3-24.29,13.3-29.63,0L1.13,21.67Z"/>
        <path class="cls-3" d="m136.22,21.67c-4.13-10.42,3.56-21.67,14.82-21.67h69.86c6.56,0,12.38,3.91,14.82,9.95l55.6,138.75c1.5,3.72,1.5,7.9,0,11.72l-34.97,87.13c-5.34,13.3-24.29,13.3-29.63,0L136.22,21.67Z"/>
        <path class="cls-2" d="m268.74,21.67c-4.13-10.42,3.56-21.67,14.82-21.67h69.86c6.56,0,12.38,3.91,14.82,9.95l55.6,138.75c1.5,3.72,1.5,7.9,0,11.72l-34.97,87.13c-5.34,13.3-24.29,13.3-29.63,0L268.74,21.67Z"/>
      </g>
    </g>
  </g>
</svg>