<svg width="24" height="25" viewBox="0 0 24 25" fill="none" xmlns="http://www.w3.org/2000/svg">
<g id="Link &#226;&#134;&#146; SVG" clip-path="url(#clip0_511_6295)">
<path id="Vector" d="M20.317 4.94029C18.761 4.22605 17.119 3.71673 15.4319 3.42509C15.4166 3.42223 15.4007 3.42427 15.3867 3.43093C15.3726 3.43759 15.3609 3.44853 15.3534 3.46219C15.1424 3.83749 14.9087 4.32699 14.7451 4.71169C12.9004 4.43549 11.0651 4.43549 9.2583 4.71169C9.0947 4.31839 8.8525 3.83749 8.6406 3.46219C8.63276 3.44884 8.62107 3.43817 8.60706 3.43157C8.59306 3.42497 8.57739 3.42275 8.5621 3.42519C6.87488 3.71615 5.2327 4.22543 3.6769 4.94019C3.66359 4.94587 3.65238 4.95555 3.6448 4.96789C0.533404 9.61628 -0.318996 14.1504 0.099204 18.6283C0.100386 18.6392 0.103757 18.6499 0.109116 18.6595C0.114476 18.6691 0.121714 18.6776 0.130404 18.6844C2.1832 20.192 4.1717 21.1072 6.1233 21.7138C6.13848 21.7183 6.15468 21.7181 6.16972 21.7132C6.18477 21.7082 6.19795 21.6988 6.2075 21.6862C6.6691 21.0558 7.0806 20.391 7.4335 19.692C7.43835 19.6824 7.44112 19.6719 7.44163 19.6612C7.44213 19.6505 7.44036 19.6398 7.43643 19.6298C7.4325 19.6198 7.4265 19.6108 7.41883 19.6033C7.41115 19.5958 7.40198 19.59 7.3919 19.5863C6.7391 19.3387 6.1176 19.0368 5.5197 18.694C5.5088 18.6876 5.49964 18.6786 5.49304 18.6678C5.48643 18.657 5.48258 18.6448 5.48183 18.6322C5.48108 18.6195 5.48345 18.6069 5.48873 18.5954C5.49401 18.5839 5.50204 18.5739 5.5121 18.5663C5.6379 18.472 5.7638 18.374 5.8839 18.2749C5.89458 18.2661 5.9075 18.2604 5.92121 18.2586C5.93492 18.2567 5.94887 18.2587 5.9615 18.2644C9.8893 20.0577 14.1415 20.0577 18.0229 18.2644C18.0355 18.2584 18.0496 18.2561 18.0635 18.2578C18.0774 18.2594 18.0906 18.265 18.1014 18.2739C18.2216 18.3729 18.3474 18.472 18.4742 18.5663C18.4843 18.5739 18.4924 18.5838 18.4977 18.5952C18.5031 18.6067 18.5055 18.6192 18.5049 18.6318C18.5042 18.6444 18.5005 18.6567 18.494 18.6675C18.4875 18.6783 18.4784 18.6874 18.4676 18.6939C17.8695 19.0432 17.2429 19.3414 16.5946 19.5853C16.5845 19.5891 16.5754 19.5951 16.5678 19.6027C16.5602 19.6103 16.5542 19.6195 16.5504 19.6295C16.5466 19.6396 16.5449 19.6504 16.5455 19.6611C16.5461 19.6719 16.549 19.6824 16.5539 19.692C16.9143 20.39 17.3258 21.0548 17.7789 21.6852C17.7882 21.6982 17.8013 21.708 17.8164 21.7131C17.8315 21.7182 17.8478 21.7185 17.8631 21.7138C19.8241 21.1071 21.8126 20.1919 23.8654 18.6844C23.8742 18.6779 23.8816 18.6697 23.887 18.6602C23.8924 18.6506 23.8957 18.6401 23.8967 18.6292C24.3971 13.4522 23.0585 8.95529 20.3482 4.96879C20.3416 4.95583 20.3305 4.94579 20.317 4.94029ZM8.02 15.9017C6.8375 15.9017 5.8631 14.816 5.8631 13.4827C5.8631 12.1495 6.8186 11.0638 8.0201 11.0638C9.2309 11.0638 10.1958 12.159 10.1769 13.4828C10.1769 14.816 9.2214 15.9017 8.02 15.9017ZM15.9948 15.9017C14.8123 15.9017 13.8379 14.816 13.8379 13.4827C13.8379 12.1495 14.7933 11.0638 15.9948 11.0638C17.2056 11.0638 18.1705 12.159 18.1516 13.4828C18.1516 14.816 17.2056 15.9017 15.9948 15.9017Z" fill="#586081"/>
</g>
<defs>
<clipPath id="clip0_511_6295">
<rect width="24" height="24" fill="white" transform="translate(0 0.570312)"/>
</clipPath>
</defs>
</svg>
