<svg width="20" height="20" viewBox="0 0 20 20" fill="none" xmlns="http://www.w3.org/2000/svg">
<path d="M10.2501 0.469727C4.86596 0.469727 0.5 4.94536 0.5 10.4666C0.5 14.8834 3.29369 18.6307 7.1677 19.9525C7.65498 20.0451 7.83387 19.7357 7.83387 19.4716C7.83387 19.2333 7.82483 18.4458 7.82063 17.6104C5.10815 18.2152 4.53579 16.4309 4.53579 16.4309C4.09226 15.2754 3.45321 14.9682 3.45321 14.9682C2.56859 14.3477 3.5199 14.3605 3.5199 14.3605C4.49897 14.431 5.01451 15.3907 5.01451 15.3907C5.88412 16.919 7.29541 16.4771 7.85179 16.2217C7.9393 15.5756 8.19199 15.1346 8.47082 14.8849C6.3052 14.6321 4.02865 13.775 4.02865 9.94445C4.02865 8.85302 4.40953 7.96123 5.03324 7.26115C4.932 7.00936 4.59827 5.99259 5.12769 4.6156C5.12769 4.6156 5.94644 4.34692 7.80965 5.64031C8.58739 5.41882 9.42148 5.30774 10.2501 5.30393C11.0787 5.30774 11.9134 5.41882 12.6926 5.64031C14.5536 4.34692 15.3712 4.6156 15.3712 4.6156C15.9019 5.99259 15.568 7.00936 15.4668 7.26115C16.0919 7.96123 16.4702 8.85302 16.4702 9.94445C16.4702 13.7841 14.1893 14.6295 12.0182 14.877C12.3679 15.1872 12.6795 15.7956 12.6795 16.7283C12.6795 18.0658 12.6682 19.1424 12.6682 19.4716C12.6682 19.7377 12.8437 20.0494 13.338 19.9512C17.2099 18.6279 20 14.8819 20 10.4666C20 4.94536 15.6347 0.469727 10.2501 0.469727ZM4.15172 14.7104C4.13025 14.7601 4.05404 14.775 3.98461 14.7409C3.9139 14.7083 3.87418 14.6406 3.8971 14.5908C3.91809 14.5396 3.99446 14.5254 4.06502 14.5596C4.1359 14.5922 4.17626 14.6606 4.15172 14.7104ZM4.63132 15.1492C4.58482 15.1934 4.49392 15.1729 4.43224 15.103C4.36847 15.0333 4.35652 14.9401 4.40366 14.8953C4.45162 14.8511 4.53977 14.8718 4.60371 14.9415C4.66748 15.012 4.67992 15.1045 4.63132 15.1492ZM4.96034 15.7106C4.9006 15.7531 4.80292 15.7132 4.74253 15.6243C4.68279 15.5354 4.68279 15.4288 4.74382 15.3861C4.80437 15.3434 4.9006 15.3818 4.96179 15.4701C5.02137 15.5604 5.02137 15.6671 4.96034 15.7106ZM5.51678 16.3608C5.46334 16.4212 5.34951 16.405 5.2662 16.3225C5.18095 16.2419 5.15722 16.1275 5.21082 16.0671C5.26491 16.0065 5.37938 16.0236 5.46334 16.1053C5.54794 16.1858 5.57378 16.301 5.51678 16.3608ZM6.23593 16.5803C6.21236 16.6586 6.10273 16.6941 5.99229 16.6609C5.88202 16.6266 5.80985 16.5349 5.83213 16.4558C5.85506 16.377 5.96517 16.3399 6.07641 16.3755C6.18653 16.4096 6.25886 16.5006 6.23593 16.5803ZM7.05436 16.6734C7.0571 16.7558 6.96346 16.8242 6.84753 16.8257C6.73096 16.8283 6.63667 16.7616 6.63538 16.6805C6.63538 16.5972 6.72692 16.5295 6.84349 16.5275C6.95942 16.5252 7.05436 16.5914 7.05436 16.6734ZM7.85837 16.6418C7.87225 16.7222 7.79169 16.8048 7.67657 16.8268C7.56338 16.848 7.4586 16.7984 7.44423 16.7186C7.43018 16.6361 7.5122 16.5535 7.62522 16.5322C7.7405 16.5116 7.84367 16.56 7.85837 16.6418Z" fill="white"/>
</svg>
