<svg width="18" height="17" viewBox="0 0 18 17" fill="none" xmlns="http://www.w3.org/2000/svg">
<g id="hammer">
<path id="Union" d="M10.9717 3.07821C11.0421 2.87801 10.9779 2.65478 10.8124 2.52198L10.6335 2.39346C10.5259 2.32149 10.3715 2.22593 10.1767 2.12549C9.78874 1.92536 9.23108 1.70097 8.55734 1.61088C7.21586 1.4315 5.50525 1.79811 3.84065 3.70187L2.78573 3.70184C2.65286 3.70184 2.52545 3.75472 2.43164 3.84881L1.14593 5.13832C0.951356 5.33346 0.951358 5.64924 1.14593 5.84439L3.71736 8.42332C3.81117 8.51741 3.93857 8.57028 4.07143 8.57028C4.20429 8.57028 4.33169 8.51741 4.4255 8.42332L5.71121 7.13385C5.80466 7.04013 5.85714 6.91317 5.85714 6.78082V6.14172L14.2444 15.014C14.3309 15.131 14.4641 15.2045 14.6093 15.2154C14.7544 15.2262 14.8971 15.1732 15 15.0703L16.5 13.5703C16.6884 13.3819 16.696 13.0789 16.5172 12.8813L7.38802 4.25116C8.13537 3.7955 9.16012 3.41237 10.5 3.41237C10.7122 3.41237 10.9013 3.27841 10.9717 3.07821Z" stroke="#586081" stroke-linejoin="round"/>
</g>
</svg>
