<svg width="17" height="17" viewBox="0 0 17 17" fill="none" xmlns="http://www.w3.org/2000/svg">
<rect width="17" height="17" fill="#1E1E1E"/>
<g id="Macro - Bots" clip-path="url(#clip0_6_8)">
<rect width="1440" height="4218" transform="translate(-221 -642)" fill="white"/>
<g id="Group 1000003820">
<rect id="Rectangle 1" x="-48" y="-47" width="532" height="621" rx="17.5935" fill="#F5F5F7"/>
<g id="search" clip-path="url(#clip1_6_8)">
<path id="b04e5f16da3c2e690dea5e7478895e9ebbf20688ca" d="M-1.415 -2.94C-1.605 -2.94 -1.76667 -2.97833 -1.9 -3.055C-2.03 -3.135 -2.12667 -3.24333 -2.19 -3.38H-2.22L-2.265 -3H-2.61V-6.6H-2.19V-5.125C-2.12667 -5.235 -2.02833 -5.33167 -1.895 -5.415C-1.75833 -5.49833 -1.59833 -5.54 -1.415 -5.54C-1.20167 -5.54 -1.01333 -5.49 -0.85 -5.39C-0.686667 -5.29 -0.558333 -5.14333 -0.465 -4.95C-0.371667 -4.75667 -0.325 -4.52167 -0.325 -4.245C-0.325 -3.965 -0.371667 -3.72667 -0.465 -3.53C-0.558333 -3.33667 -0.688333 -3.19 -0.855 -3.09C-1.01833 -2.99 -1.205 -2.94 -1.415 -2.94ZM-1.47 -3.34C-1.26 -3.34 -1.08833 -3.41333 -0.955 -3.56C-0.818333 -3.71 -0.75 -3.93667 -0.75 -4.24C-0.75 -4.54333 -0.818333 -4.76833 -0.955 -4.915C-1.08833 -5.065 -1.26 -5.14 -1.47 -5.14C-1.68 -5.14 -1.85333 -5.065 -1.99 -4.915C-2.12667 -4.76833 -2.195 -4.54333 -2.195 -4.24C-2.195 -3.93667 -2.12667 -3.71 -1.99 -3.56C-1.85333 -3.41333 -1.68 -3.34 -1.47 -3.34ZM1.92305 -2.94C1.65971 -2.94 1.42638 -3.01333 1.22305 -3.16C1.02305 -3.30667 0.86638 -3.515 0.753047 -3.785C0.643047 -4.055 0.588047 -4.37667 0.588047 -4.75C0.588047 -5.12333 0.643047 -5.445 0.753047 -5.715C0.86638 -5.985 1.02305 -6.19333 1.22305 -6.34C1.42638 -6.48667 1.65971 -6.56 1.92305 -6.56C2.18971 -6.56 2.42305 -6.48667 2.62305 -6.34C2.82305 -6.19333 2.97805 -5.985 3.08805 -5.715C3.20138 -5.445 3.25805 -5.12333 3.25805 -4.75C3.25805 -4.37667 3.20138 -4.055 3.08805 -3.785C2.97805 -3.515 2.82305 -3.30667 2.62305 -3.16C2.42305 -3.01333 2.18971 -2.94 1.92305 -2.94ZM1.01805 -4.75C1.01805 -4.52333 1.04138 -4.31833 1.08805 -4.135C1.13805 -3.955 1.20638 -3.80333 1.29305 -3.68L2.26305 -6.085C2.15971 -6.14167 2.04638 -6.17 1.92305 -6.17C1.74638 -6.17 1.58971 -6.11167 1.45305 -5.995C1.31638 -5.88167 1.20971 -5.71833 1.13305 -5.505C1.05638 -5.295 1.01805 -5.04333 1.01805 -4.75ZM1.92305 -3.325C2.09971 -3.325 2.25638 -3.38167 2.39305 -3.495C2.52971 -3.61167 2.63638 -3.77667 2.71305 -3.99C2.78971 -4.20333 2.82805 -4.45667 2.82805 -4.75C2.82805 -4.97667 2.80305 -5.18 2.75305 -5.36C2.70638 -5.54333 2.63971 -5.69667 2.55305 -5.82L1.57805 -3.41C1.68471 -3.35333 1.79971 -3.325 1.92305 -3.325ZM5.77609 -3V-3.81H4.10109V-4.135L5.69609 -6.5H6.19609V-4.19H6.69609V-3.81H6.19609V-3H5.77609ZM4.57109 -4.19H5.79609V-6.01L4.57109 -4.19ZM8.79414 -2.94C8.56081 -2.94 8.35414 -2.99333 8.17414 -3.1C7.99747 -3.21 7.85747 -3.36167 7.75414 -3.555C7.65081 -3.75167 7.59914 -3.98 7.59914 -4.24C7.59914 -4.5 7.64914 -4.72667 7.74914 -4.92C7.85247 -5.11667 7.99414 -5.26833 8.17414 -5.375C8.35414 -5.485 8.56414 -5.54 8.80414 -5.54C9.04414 -5.54 9.24914 -5.485 9.41914 -5.375C9.58914 -5.26833 9.71914 -5.12667 9.80914 -4.95C9.89914 -4.77333 9.94414 -4.58333 9.94414 -4.38C9.94414 -4.34333 9.94247 -4.30667 9.93914 -4.27C9.93914 -4.23333 9.93914 -4.19167 9.93914 -4.145H8.01414C8.02414 -3.96167 8.06581 -3.80833 8.13914 -3.685C8.21581 -3.565 8.31081 -3.475 8.42414 -3.415C8.54081 -3.355 8.66414 -3.325 8.79414 -3.325C8.97747 -3.325 9.12081 -3.36333 9.22414 -3.44C9.32747 -3.51667 9.40581 -3.62333 9.45914 -3.76H9.87414C9.81747 -3.53 9.69914 -3.335 9.51914 -3.175C9.33914 -3.01833 9.09747 -2.94 8.79414 -2.94ZM8.79414 -5.165C8.60081 -5.165 8.43081 -5.10667 8.28414 -4.99C8.14081 -4.87333 8.05247 -4.71 8.01914 -4.5H9.52914C9.51581 -4.70667 9.44081 -4.86833 9.30414 -4.985C9.17081 -5.105 9.00081 -5.165 8.79414 -5.165ZM12.1922 -2.94C11.9522 -2.94 11.7455 -2.985 11.5722 -3.075C11.3989 -3.165 11.2622 -3.28667 11.1622 -3.44C11.0622 -3.59333 11.0022 -3.76833 10.9822 -3.965H11.4122C11.4422 -3.775 11.5272 -3.62 11.6672 -3.5C11.8072 -3.38333 11.9839 -3.325 12.1972 -3.325C12.4472 -3.325 12.6439 -3.405 12.7872 -3.565C12.9305 -3.72833 13.0022 -3.93333 13.0022 -4.18C13.0022 -4.44 12.9289 -4.64333 12.7822 -4.79C12.6355 -4.94 12.4455 -5.015 12.2122 -5.015C12.0255 -5.015 11.8655 -4.97167 11.7322 -4.885C11.6022 -4.80167 11.4972 -4.695 11.4172 -4.565H11.0172L11.3172 -6.5H13.1872V-6.115H11.6472L11.4622 -5.075H11.4872C11.5639 -5.15833 11.6672 -5.23167 11.7972 -5.295C11.9305 -5.35833 12.0839 -5.39 12.2572 -5.39C12.4872 -5.39 12.6872 -5.34 12.8572 -5.24C13.0305 -5.14333 13.1655 -5.00333 13.2622 -4.82C13.3589 -4.64 13.4072 -4.42833 13.4072 -4.185C13.4072 -3.95833 13.3589 -3.75 13.2622 -3.56C13.1689 -3.37333 13.0305 -3.22333 12.8472 -3.11C12.6672 -2.99667 12.4489 -2.94 12.1922 -2.94ZM14.5752 -1.9V-2.285H14.8802C15.0069 -2.285 15.0969 -2.31 15.1502 -2.36C15.2036 -2.41 15.2302 -2.49833 15.2302 -2.625V-5.12H14.6152V-5.48H15.2302V-5.875C15.2302 -6.13167 15.2919 -6.31667 15.4152 -6.43C15.5386 -6.54333 15.7252 -6.6 15.9752 -6.6H16.5702V-6.22H16.0002C15.8769 -6.22 15.7869 -6.19333 15.7302 -6.14C15.6769 -6.09 15.6502 -6.00167 15.6502 -5.875V-5.48H16.5702V-5.12H15.6502V-2.625C15.6502 -2.36833 15.5886 -2.18333 15.4652 -2.07C15.3419 -1.95667 15.1569 -1.9 14.9102 -1.9H14.5752ZM17.8883 -3V-3.38H18.7933V-6.005L17.9383 -5.84V-6.16L18.9333 -6.5H19.2133V-3.38H20.1683V-3H17.8883ZM-1.43 3.06C-1.73667 3.06 -1.98667 2.98667 -2.18 2.84C-2.37 2.69 -2.51167 2.49 -2.605 2.24C-2.695 1.98667 -2.74 1.70167 -2.74 1.385C-2.74 1.00167 -2.68667 0.665 -2.58 0.375C-2.47333 0.0816665 -2.32 -0.146667 -2.12 -0.31C-1.91667 -0.476667 -1.67333 -0.56 -1.39 -0.56C-1.16667 -0.56 -0.976667 -0.516667 -0.82 -0.43C-0.66 -0.346667 -0.535 -0.231667 -0.445 -0.0850002C-0.351666 0.0583333 -0.296667 0.22 -0.28 0.4H-0.675C-0.708333 0.223333 -0.788333 0.0833332 -0.915 -0.0200002C-1.04167 -0.126667 -1.2 -0.18 -1.39 -0.18C-1.55667 -0.18 -1.71 -0.126667 -1.85 -0.0200002C-1.98667 0.0833332 -2.1 0.245 -2.19 0.465C-2.27667 0.681667 -2.32667 0.958333 -2.34 1.295H-2.315C-2.23833 1.15167 -2.12 1.02667 -1.96 0.92C-1.8 0.813333 -1.60667 0.76 -1.38 0.76C-1.17 0.76 -0.981667 0.808333 -0.815 0.905C-0.648333 1.00167 -0.516667 1.135 -0.42 1.305C-0.32 1.475 -0.27 1.66833 -0.27 1.885C-0.27 2.09833 -0.318333 2.295 -0.415 2.475C-0.508333 2.65167 -0.643333 2.79333 -0.82 2.9C-0.993333 3.00667 -1.19667 3.06 -1.43 3.06ZM-1.46 2.68C-1.23 2.68 -1.045 2.60667 -0.905 2.46C-0.765 2.31333 -0.695 2.13 -0.695 1.91C-0.695 1.68667 -0.765 1.50333 -0.905 1.36C-1.045 1.21333 -1.23 1.14 -1.46 1.14C-1.61333 1.14 -1.74833 1.17333 -1.865 1.24C-1.97833 1.30667 -2.06833 1.39833 -2.135 1.515C-2.19833 1.63167 -2.23 1.76333 -2.23 1.91C-2.23 2.05667 -2.19833 2.18833 -2.135 2.305C-2.06833 2.42167 -1.97833 2.51333 -1.865 2.58C-1.74833 2.64667 -1.61333 2.68 -1.46 2.68ZM1.83805 3.06C1.62805 3.06 1.43971 3.01 1.27305 2.91C1.10971 2.81 0.98138 2.66333 0.888047 2.47C0.794714 2.27333 0.748047 2.035 0.748047 1.755C0.748047 1.47833 0.794714 1.24333 0.888047 1.05C0.98138 0.856667 1.10971 0.71 1.27305 0.61C1.43971 0.51 1.62805 0.46 1.83805 0.46C2.03471 0.46 2.19638 0.498333 2.32305 0.575C2.45305 0.651667 2.54971 0.751667 2.61305 0.875V-0.6H3.03305V3H2.68805L2.64305 2.615H2.61305C2.54638 2.75167 2.44805 2.86 2.31805 2.94C2.18805 3.02 2.02805 3.06 1.83805 3.06ZM1.89305 2.66C2.10305 2.66 2.27638 2.58667 2.41305 2.44C2.54971 2.29 2.61805 2.06333 2.61805 1.76C2.61805 1.45667 2.54971 1.23167 2.41305 1.085C2.27638 0.935 2.10305 0.86 1.89305 0.86C1.68305 0.86 1.50971 0.935 1.37305 1.085C1.23971 1.23167 1.17305 1.45667 1.17305 1.76C1.17305 2.06333 1.23971 2.29 1.37305 2.44C1.50971 2.58667 1.68305 2.66 1.89305 2.66ZM5.13609 3.06C4.93943 3.06 4.77609 3.025 4.64609 2.955C4.51609 2.885 4.41943 2.79333 4.35609 2.68C4.29276 2.56333 4.26109 2.43667 4.26109 2.3C4.26109 2.04667 4.35276 1.855 4.53609 1.725C4.72276 1.59167 4.97109 1.525 5.28109 1.525H5.96109V1.475C5.96109 1.04167 5.76276 0.825 5.36609 0.825C5.20609 0.825 5.07109 0.86 4.96109 0.93C4.85443 1 4.78609 1.11 4.75609 1.26H4.32609C4.34276 1.09333 4.39776 0.95 4.49109 0.83C4.58776 0.71 4.71109 0.618333 4.86109 0.555C5.01109 0.491667 5.17943 0.46 5.36609 0.46C5.71943 0.46 5.97609 0.553333 6.13609 0.74C6.29943 0.923333 6.38109 1.16833 6.38109 1.475V3H6.02109L5.98609 2.615H5.95109C5.87776 2.735 5.77943 2.84 5.65609 2.93C5.53609 3.01667 5.36276 3.06 5.13609 3.06ZM5.21109 2.69C5.37109 2.69 5.50609 2.65167 5.61609 2.575C5.72943 2.49833 5.81443 2.39667 5.87109 2.27C5.93109 2.14333 5.96109 2.005 5.96109 1.855H5.31609C5.08943 1.855 4.92943 1.89333 4.83609 1.97C4.74609 2.04667 4.70109 2.14833 4.70109 2.275C4.70109 2.405 4.74443 2.50667 4.83109 2.58C4.91776 2.65333 5.04443 2.69 5.21109 2.69ZM8.81414 3.06C8.58414 3.06 8.37747 3.01833 8.19414 2.935C8.01414 2.84833 7.86914 2.72333 7.75914 2.56C7.64914 2.39667 7.58914 2.19667 7.57914 1.96H8.00914C8.01581 2.16 8.08914 2.33 8.22914 2.47C8.36914 2.60667 8.56414 2.675 8.81414 2.675C9.05747 2.675 9.24581 2.61333 9.37914 2.49C9.51247 2.36333 9.57914 2.19167 9.57914 1.975C9.57914 1.825 9.54081 1.70167 9.46414 1.605C9.38747 1.505 9.28414 1.43167 9.15414 1.385C9.02747 1.335 8.88581 1.31 8.72914 1.31H8.42414V0.93H8.68914C8.91581 0.93 9.09581 0.881667 9.22914 0.785C9.36581 0.688333 9.43414 0.546667 9.43414 0.36C9.43414 0.203333 9.37914 0.0749998 9.26914 -0.0250001C9.16247 -0.125 9.00914 -0.175 8.80914 -0.175C8.61581 -0.175 8.45914 -0.12 8.33914 -0.0100003C8.21914 0.0966664 8.15081 0.236666 8.13414 0.41H7.71414C7.72081 0.22 7.77081 0.0533331 7.86414 -0.0900002C7.95747 -0.236667 8.08414 -0.351667 8.24414 -0.435C8.40747 -0.518333 8.59581 -0.56 8.80914 -0.56C9.03914 -0.56 9.23081 -0.52 9.38414 -0.44C9.54081 -0.36 9.65914 -0.251667 9.73914 -0.115C9.81914 0.0183333 9.85914 0.166667 9.85914 0.33C9.85914 0.503333 9.80581 0.656667 9.69914 0.79C9.59247 0.92 9.46581 1.01167 9.31914 1.065V1.095C9.51581 1.155 9.67914 1.25667 9.80914 1.4C9.93914 1.54333 10.0041 1.735 10.0041 1.975C10.0041 2.17833 9.95581 2.36167 9.85914 2.525C9.76581 2.68833 9.62914 2.81833 9.44914 2.915C9.27247 3.01167 9.06081 3.06 8.81414 3.06ZM12.2322 3.06C12.0089 3.06 11.8089 3.00833 11.6322 2.905C11.4589 2.80167 11.3205 2.65333 11.2172 2.46C11.1139 2.26333 11.0622 2.03 11.0622 1.76C11.0622 1.49 11.1139 1.25833 11.2172 1.065C11.3205 0.868333 11.4605 0.718333 11.6372 0.615C11.8172 0.511667 12.0155 0.46 12.2322 0.46C12.5389 0.46 12.7839 0.536667 12.9672 0.69C13.1505 0.843333 13.2672 1.04833 13.3172 1.305H12.8872C12.8472 1.16833 12.7705 1.06 12.6572 0.98C12.5439 0.896667 12.4005 0.855 12.2272 0.855C12.1005 0.855 11.9805 0.888333 11.8672 0.955C11.7539 1.02167 11.6622 1.12167 11.5922 1.255C11.5222 1.38833 11.4872 1.55667 11.4872 1.76C11.4872 1.96333 11.5222 2.13333 11.5922 2.27C11.6622 2.40333 11.7539 2.50333 11.8672 2.57C11.9805 2.63667 12.1005 2.67 12.2272 2.67C12.4105 2.67 12.5555 2.62833 12.6622 2.545C12.7722 2.46167 12.8472 2.35167 12.8872 2.215H13.3172C13.2539 2.47833 13.1289 2.685 12.9422 2.835C12.7589 2.985 12.5222 3.06 12.2322 3.06ZM14.4852 3V2.67C14.8452 2.38333 15.1586 2.12 15.4252 1.88C15.6952 1.64 15.9036 1.40833 16.0502 1.185C16.1969 0.961667 16.2702 0.733333 16.2702 0.5C16.2702 0.29 16.2102 0.125 16.0902 0.00499982C15.9736 -0.118334 15.8152 -0.18 15.6152 -0.18C15.4619 -0.18 15.3319 -0.146667 15.2252 -0.0800003C15.1186 -0.0133335 15.0386 0.0749999 14.9852 0.185C14.9319 0.295 14.9052 0.413333 14.9052 0.54H14.4902C14.4936 0.31 14.5436 0.113333 14.6402 -0.0500001C14.7402 -0.216667 14.8736 -0.343334 15.0402 -0.43C15.2102 -0.516667 15.4019 -0.56 15.6152 -0.56C15.9586 -0.56 16.2252 -0.465 16.4152 -0.275C16.6052 -0.0850002 16.7002 0.17 16.7002 0.49C16.7002 0.7 16.6552 0.901667 16.5652 1.095C16.4752 1.285 16.3552 1.46833 16.2052 1.645C16.0552 1.82167 15.8869 1.99167 15.7002 2.155C15.5136 2.31833 15.3252 2.475 15.1352 2.625H16.7952V3H14.4852ZM19.0633 3.06C18.8299 3.06 18.6233 3.00667 18.4433 2.9C18.2666 2.79 18.1266 2.63833 18.0233 2.445C17.9199 2.24833 17.8683 2.02 17.8683 1.76C17.8683 1.5 17.9183 1.27333 18.0183 1.08C18.1216 0.883333 18.2633 0.731667 18.4433 0.625C18.6233 0.515 18.8333 0.46 19.0733 0.46C19.3133 0.46 19.5183 0.515 19.6883 0.625C19.8583 0.731667 19.9883 0.873333 20.0783 1.05C20.1683 1.22667 20.2133 1.41667 20.2133 1.62C20.2133 1.65667 20.2116 1.69333 20.2083 1.73C20.2083 1.76667 20.2083 1.80833 20.2083 1.855H18.2833C18.2933 2.03833 18.3349 2.19167 18.4083 2.315C18.4849 2.435 18.5799 2.525 18.6933 2.585C18.8099 2.645 18.9333 2.675 19.0633 2.675C19.2466 2.675 19.3899 2.63667 19.4933 2.56C19.5966 2.48333 19.6749 2.37667 19.7283 2.24H20.1433C20.0866 2.47 19.9683 2.665 19.7883 2.825C19.6083 2.98167 19.3666 3.06 19.0633 3.06ZM19.0633 0.835C18.8699 0.835 18.6999 0.893333 18.5533 1.01C18.4099 1.12667 18.3216 1.29 18.2883 1.5H19.7983C19.7849 1.29333 19.7099 1.13167 19.5733 1.015C19.4399 0.895 19.2699 0.835 19.0633 0.835ZM-1.43 8.06C-1.73667 8.06 -1.98667 7.98667 -2.18 7.84C-2.37 7.69 -2.51167 7.49 -2.605 7.24C-2.695 6.98667 -2.74 6.70167 -2.74 6.385C-2.74 6.00167 -2.68667 5.665 -2.58 5.375C-2.47333 5.08167 -2.32 4.85333 -2.12 4.69C-1.91667 4.52333 -1.67333 4.44 -1.39 4.44C-1.16667 4.44 -0.976667 4.48333 -0.82 4.57C-0.66 4.65333 -0.535 4.76833 -0.445 4.915C-0.351666 5.05833 -0.296667 5.22 -0.28 5.4H-0.675C-0.708333 5.22333 -0.788333 5.08333 -0.915 4.98C-1.04167 4.87333 -1.2 4.82 -1.39 4.82C-1.55667 4.82 -1.71 4.87333 -1.85 4.98C-1.98667 5.08333 -2.1 5.245 -2.19 5.465C-2.27667 5.68167 -2.32667 5.95833 -2.34 6.295H-2.315C-2.23833 6.15167 -2.12 6.02667 -1.96 5.92C-1.8 5.81333 -1.60667 5.76 -1.38 5.76C-1.17 5.76 -0.981667 5.80833 -0.815 5.905C-0.648333 6.00167 -0.516667 6.135 -0.42 6.305C-0.32 6.475 -0.27 6.66833 -0.27 6.885C-0.27 7.09833 -0.318333 7.295 -0.415 7.475C-0.508333 7.65167 -0.643333 7.79333 -0.82 7.9C-0.993333 8.00667 -1.19667 8.06 -1.43 8.06ZM-1.46 7.68C-1.23 7.68 -1.045 7.60667 -0.905 7.46C-0.765 7.31333 -0.695 7.13 -0.695 6.91C-0.695 6.68667 -0.765 6.50333 -0.905 6.36C-1.045 6.21333 -1.23 6.14 -1.46 6.14C-1.61333 6.14 -1.74833 6.17333 -1.865 6.24C-1.97833 6.30667 -2.06833 6.39833 -2.135 6.515C-2.19833 6.63167 -2.23 6.76333 -2.23 6.91C-2.23 7.05667 -2.19833 7.18833 -2.135 7.305C-2.06833 7.42167 -1.97833 7.51333 -1.865 7.58C-1.74833 7.64667 -1.61333 7.68 -1.46 7.68ZM1.86305 8.06C1.64971 8.06 1.45971 8.01833 1.29305 7.935C1.12971 7.84833 0.998047 7.73333 0.898047 7.59C0.80138 7.44333 0.744714 7.28 0.728047 7.1H1.13305C1.16305 7.27667 1.24138 7.41833 1.36805 7.525C1.49805 7.62833 1.66305 7.68 1.86305 7.68C2.12638 7.68 2.34138 7.56167 2.50805 7.325C2.67471 7.085 2.76971 6.71167 2.79305 6.205H2.76305C2.67305 6.36167 2.55805 6.49 2.41805 6.59C2.27805 6.69 2.08138 6.74 1.82805 6.74C1.61805 6.74 1.42971 6.69167 1.26305 6.595C1.09638 6.49833 0.963047 6.365 0.863047 6.195C0.76638 6.025 0.718047 5.83167 0.718047 5.615C0.718047 5.40167 0.764714 5.20667 0.858047 5.03C0.954714 4.85 1.08971 4.70667 1.26305 4.6C1.43971 4.49333 1.64471 4.44 1.87805 4.44C2.31805 4.44 2.64638 4.59 2.86305 4.89C3.07971 5.19 3.18805 5.59833 3.18805 6.115C3.18805 6.49833 3.13638 6.83667 3.03305 7.13C2.92971 7.42 2.77971 7.64833 2.58305 7.815C2.38638 7.97833 2.14638 8.06 1.86305 8.06ZM1.90805 6.36C2.14138 6.36 2.32805 6.28667 2.46805 6.14C2.60805 5.99333 2.67805 5.81 2.67805 5.59C2.67805 5.37 2.60805 5.18667 2.46805 5.04C2.32805 4.89333 2.14138 4.82 1.90805 4.82C1.67471 4.82 1.48805 4.89333 1.34805 5.04C1.21138 5.18667 1.14305 5.37 1.14305 5.59C1.14305 5.81333 1.21138 5.99833 1.34805 6.145C1.48805 6.28833 1.67471 6.36 1.90805 6.36ZM5.34609 8.06C5.08276 8.06 4.84943 7.98667 4.64609 7.84C4.44609 7.69333 4.28943 7.485 4.17609 7.215C4.06609 6.945 4.01109 6.62333 4.01109 6.25C4.01109 5.87667 4.06609 5.555 4.17609 5.285C4.28943 5.015 4.44609 4.80667 4.64609 4.66C4.84943 4.51333 5.08276 4.44 5.34609 4.44C5.61276 4.44 5.84609 4.51333 6.04609 4.66C6.24609 4.80667 6.40109 5.015 6.51109 5.285C6.62443 5.555 6.68109 5.87667 6.68109 6.25C6.68109 6.62333 6.62443 6.945 6.51109 7.215C6.40109 7.485 6.24609 7.69333 6.04609 7.84C5.84609 7.98667 5.61276 8.06 5.34609 8.06ZM4.44109 6.25C4.44109 6.47667 4.46443 6.68167 4.51109 6.865C4.56109 7.045 4.62943 7.19667 4.71609 7.32L5.68609 4.915C5.58276 4.85833 5.46943 4.83 5.34609 4.83C5.16943 4.83 5.01276 4.88833 4.87609 5.005C4.73943 5.11833 4.63276 5.28167 4.55609 5.495C4.47943 5.705 4.44109 5.95667 4.44109 6.25ZM5.34609 7.675C5.52276 7.675 5.67943 7.61833 5.81609 7.505C5.95276 7.38833 6.05943 7.22333 6.13609 7.01C6.21276 6.79667 6.25109 6.54333 6.25109 6.25C6.25109 6.02333 6.22609 5.82 6.17609 5.64C6.12943 5.45667 6.06276 5.30333 5.97609 5.18L5.00109 7.59C5.10776 7.64667 5.22276 7.675 5.34609 7.675ZM8.68414 8.06C8.47414 8.06 8.28581 8.01 8.11914 7.91C7.95581 7.81 7.82747 7.66333 7.73414 7.47C7.64081 7.27333 7.59414 7.035 7.59414 6.755C7.59414 6.47833 7.64081 6.24333 7.73414 6.05C7.82747 5.85667 7.95581 5.71 8.11914 5.61C8.28581 5.51 8.47414 5.46 8.68414 5.46C8.88081 5.46 9.04247 5.49833 9.16914 5.575C9.29914 5.65167 9.39581 5.75167 9.45914 5.875V4.4H9.87914V8H9.53414L9.48914 7.615H9.45914C9.39247 7.75167 9.29414 7.86 9.16414 7.94C9.03414 8.02 8.87414 8.06 8.68414 8.06ZM8.73914 7.66C8.94914 7.66 9.12247 7.58667 9.25914 7.44C9.39581 7.29 9.46414 7.06333 9.46414 6.76C9.46414 6.45667 9.39581 6.23167 9.25914 6.085C9.12247 5.935 8.94914 5.86 8.73914 5.86C8.52914 5.86 8.35581 5.935 8.21914 6.085C8.08581 6.23167 8.01914 6.45667 8.01914 6.76C8.01914 7.06333 8.08581 7.29 8.21914 7.44C8.35581 7.58667 8.52914 7.66 8.73914 7.66ZM12.2172 8.06C11.9839 8.06 11.7772 8.00667 11.5972 7.9C11.4205 7.79 11.2805 7.63833 11.1772 7.445C11.0739 7.24833 11.0222 7.02 11.0222 6.76C11.0222 6.5 11.0722 6.27333 11.1722 6.08C11.2755 5.88333 11.4172 5.73167 11.5972 5.625C11.7772 5.515 11.9872 5.46 12.2272 5.46C12.4672 5.46 12.6722 5.515 12.8422 5.625C13.0122 5.73167 13.1422 5.87333 13.2322 6.05C13.3222 6.22667 13.3672 6.41667 13.3672 6.62C13.3672 6.65667 13.3655 6.69333 13.3622 6.73C13.3622 6.76667 13.3622 6.80833 13.3622 6.855H11.4372C11.4472 7.03833 11.4889 7.19167 11.5622 7.315C11.6389 7.435 11.7339 7.525 11.8472 7.585C11.9639 7.645 12.0872 7.675 12.2172 7.675C12.4005 7.675 12.5439 7.63667 12.6472 7.56C12.7505 7.48333 12.8289 7.37667 12.8822 7.24H13.2972C13.2405 7.47 13.1222 7.665 12.9422 7.825C12.7622 7.98167 12.5205 8.06 12.2172 8.06ZM12.2172 5.835C12.0239 5.835 11.8539 5.89333 11.7072 6.01C11.5639 6.12667 11.4755 6.29 11.4422 6.5H12.9522C12.9389 6.29333 12.8639 6.13167 12.7272 6.015C12.5939 5.895 12.4239 5.835 12.2172 5.835ZM15.4052 8.06C15.2086 8.06 15.0452 8.025 14.9152 7.955C14.7852 7.885 14.6886 7.79333 14.6252 7.68C14.5619 7.56333 14.5302 7.43667 14.5302 7.3C14.5302 7.04667 14.6219 6.855 14.8052 6.725C14.9919 6.59167 15.2402 6.525 15.5502 6.525H16.2302V6.475C16.2302 6.04167 16.0319 5.825 15.6352 5.825C15.4752 5.825 15.3402 5.86 15.2302 5.93C15.1236 6 15.0552 6.11 15.0252 6.26H14.5952C14.6119 6.09333 14.6669 5.95 14.7602 5.83C14.8569 5.71 14.9802 5.61833 15.1302 5.555C15.2802 5.49167 15.4486 5.46 15.6352 5.46C15.9886 5.46 16.2452 5.55333 16.4052 5.74C16.5686 5.92333 16.6502 6.16833 16.6502 6.475V8H16.2902L16.2552 7.615H16.2202C16.1469 7.735 16.0486 7.84 15.9252 7.93C15.8052 8.01667 15.6319 8.06 15.4052 8.06ZM15.4802 7.69C15.6402 7.69 15.7752 7.65167 15.8852 7.575C15.9986 7.49833 16.0836 7.39667 16.1402 7.27C16.2002 7.14333 16.2302 7.005 16.2302 6.855H15.5852C15.3586 6.855 15.1986 6.89333 15.1052 6.97C15.0152 7.04667 14.9702 7.14833 14.9702 7.275C14.9702 7.405 15.0136 7.50667 15.1002 7.58C15.1869 7.65333 15.3136 7.69 15.4802 7.69ZM19.0383 8.06C18.7983 8.06 18.5916 8.015 18.4183 7.925C18.2449 7.835 18.1083 7.71333 18.0083 7.56C17.9083 7.40667 17.8483 7.23167 17.8283 7.035H18.2583C18.2883 7.225 18.3733 7.38 18.5133 7.5C18.6533 7.61667 18.8299 7.675 19.0433 7.675C19.2933 7.675 19.4899 7.595 19.6333 7.435C19.7766 7.27167 19.8483 7.06667 19.8483 6.82C19.8483 6.56 19.7749 6.35667 19.6283 6.21C19.4816 6.06 19.2916 5.985 19.0583 5.985C18.8716 5.985 18.7116 6.02833 18.5783 6.115C18.4483 6.19833 18.3433 6.305 18.2633 6.435H17.8633L18.1633 4.5H20.0333V4.885H18.4933L18.3083 5.925H18.3333C18.4099 5.84167 18.5133 5.76833 18.6433 5.705C18.7766 5.64167 18.9299 5.61 19.1033 5.61C19.3333 5.61 19.5333 5.66 19.7033 5.76C19.8766 5.85667 20.0116 5.99667 20.1083 6.18C20.2049 6.36 20.2533 6.57167 20.2533 6.815C20.2533 7.04167 20.2049 7.25 20.1083 7.44C20.0149 7.62667 19.8766 7.77667 19.6933 7.89C19.5133 8.00333 19.2949 8.06 19.0383 8.06ZM-1.475 14.06C-1.70833 14.06 -1.915 14.0067 -2.095 13.9C-2.27167 13.79 -2.41167 13.6383 -2.515 13.445C-2.61833 13.2483 -2.67 13.02 -2.67 12.76C-2.67 12.5 -2.62 12.2733 -2.52 12.08C-2.41667 11.8833 -2.275 11.7317 -2.095 11.625C-1.915 11.515 -1.705 11.46 -1.465 11.46C-1.225 11.46 -1.02 11.515 -0.85 11.625C-0.68 11.7317 -0.55 11.8733 -0.46 12.05C-0.37 12.2267 -0.325 12.4167 -0.325 12.62C-0.325 12.6567 -0.326667 12.6933 -0.33 12.73C-0.33 12.7667 -0.33 12.8083 -0.33 12.855H-2.255C-2.245 13.0383 -2.20333 13.1917 -2.13 13.315C-2.05333 13.435 -1.95833 13.525 -1.845 13.585C-1.72833 13.645 -1.605 13.675 -1.475 13.675C-1.29167 13.675 -1.14833 13.6367 -1.045 13.56C-0.941667 13.4833 -0.863333 13.3767 -0.81 13.24H-0.395C-0.451667 13.47 -0.57 13.665 -0.75 13.825C-0.93 13.9817 -1.17167 14.06 -1.475 14.06ZM-1.475 11.835C-1.66833 11.835 -1.83833 11.8933 -1.985 12.01C-2.12833 12.1267 -2.21667 12.29 -2.25 12.5H-0.74C-0.753333 12.2933 -0.828333 12.1317 -0.965 12.015C-1.09833 11.895 -1.26833 11.835 -1.475 11.835ZM1.28305 14L2.64805 10.88H0.738047V10.5H3.08305V10.835L1.72805 14H1.28305ZM5.77609 14V13.19H4.10109V12.865L5.69609 10.5H6.19609V12.81H6.69609V13.19H6.19609V14H5.77609ZM4.57109 12.81H5.79609V10.99L4.57109 12.81ZM8.12914 14L9.49414 10.88H7.58414V10.5H9.92914V10.835L8.57414 14H8.12914ZM12.1922 14.06C11.9589 14.06 11.7539 14.0167 11.5772 13.93C11.4039 13.84 11.2672 13.7183 11.1672 13.565C11.0672 13.4117 11.0172 13.2367 11.0172 13.04C11.0172 12.82 11.0755 12.6333 11.1922 12.48C11.3089 12.3267 11.4439 12.22 11.5972 12.16V12.135C11.4505 12.065 11.3322 11.965 11.2422 11.835C11.1555 11.7017 11.1122 11.5467 11.1122 11.37C11.1122 11.2 11.1555 11.045 11.2422 10.905C11.3322 10.7617 11.4589 10.6483 11.6222 10.565C11.7855 10.4817 11.9755 10.44 12.1922 10.44C12.4055 10.44 12.5922 10.4817 12.7522 10.565C12.9155 10.6483 13.0422 10.7617 13.1322 10.905C13.2255 11.045 13.2722 11.2 13.2722 11.37C13.2722 11.5467 13.2272 11.7017 13.1372 11.835C13.0505 11.965 12.9339 12.065 12.7872 12.135V12.16C12.9405 12.22 13.0755 12.3267 13.1922 12.48C13.3089 12.6333 13.3672 12.82 13.3672 13.04C13.3672 13.2367 13.3172 13.4117 13.2172 13.565C13.1172 13.7183 12.9789 13.84 12.8022 13.93C12.6289 14.0167 12.4255 14.06 12.1922 14.06ZM12.1922 11.98C12.3989 11.98 12.5605 11.9267 12.6772 11.82C12.7972 11.71 12.8572 11.5683 12.8572 11.395C12.8572 11.225 12.7972 11.0867 12.6772 10.98C12.5605 10.87 12.3989 10.815 12.1922 10.815C11.9855 10.815 11.8222 10.87 11.7022 10.98C11.5855 11.0867 11.5272 11.225 11.5272 11.395C11.5272 11.5683 11.5855 11.71 11.7022 11.82C11.8222 11.9267 11.9855 11.98 12.1922 11.98ZM12.1922 13.68C12.4155 13.68 12.5955 13.6233 12.7322 13.51C12.8722 13.3933 12.9422 13.225 12.9422 13.005C12.9422 12.7883 12.8722 12.6233 12.7322 12.51C12.5955 12.3933 12.4155 12.335 12.1922 12.335C11.9689 12.335 11.7872 12.3933 11.6472 12.51C11.5105 12.6233 11.4422 12.7883 11.4422 13.005C11.4422 13.225 11.5105 13.3933 11.6472 13.51C11.7872 13.6233 11.9689 13.68 12.1922 13.68ZM15.6152 14.06C15.3819 14.06 15.1769 14.0167 15.0002 13.93C14.8269 13.84 14.6902 13.7183 14.5902 13.565C14.4902 13.4117 14.4402 13.2367 14.4402 13.04C14.4402 12.82 14.4986 12.6333 14.6152 12.48C14.7319 12.3267 14.8669 12.22 15.0202 12.16V12.135C14.8736 12.065 14.7552 11.965 14.6652 11.835C14.5786 11.7017 14.5352 11.5467 14.5352 11.37C14.5352 11.2 14.5786 11.045 14.6652 10.905C14.7552 10.7617 14.8819 10.6483 15.0452 10.565C15.2086 10.4817 15.3986 10.44 15.6152 10.44C15.8286 10.44 16.0152 10.4817 16.1752 10.565C16.3386 10.6483 16.4652 10.7617 16.5552 10.905C16.6486 11.045 16.6952 11.2 16.6952 11.37C16.6952 11.5467 16.6502 11.7017 16.5602 11.835C16.4736 11.965 16.3569 12.065 16.2102 12.135V12.16C16.3636 12.22 16.4986 12.3267 16.6152 12.48C16.7319 12.6333 16.7902 12.82 16.7902 13.04C16.7902 13.2367 16.7402 13.4117 16.6402 13.565C16.5402 13.7183 16.4019 13.84 16.2252 13.93C16.0519 14.0167 15.8486 14.06 15.6152 14.06ZM15.6152 11.98C15.8219 11.98 15.9836 11.9267 16.1002 11.82C16.2202 11.71 16.2802 11.5683 16.2802 11.395C16.2802 11.225 16.2202 11.0867 16.1002 10.98C15.9836 10.87 15.8219 10.815 15.6152 10.815C15.4086 10.815 15.2452 10.87 15.1252 10.98C15.0086 11.0867 14.9502 11.225 14.9502 11.395C14.9502 11.5683 15.0086 11.71 15.1252 11.82C15.2452 11.9267 15.4086 11.98 15.6152 11.98ZM15.6152 13.68C15.8386 13.68 16.0186 13.6233 16.1552 13.51C16.2952 13.3933 16.3652 13.225 16.3652 13.005C16.3652 12.7883 16.2952 12.6233 16.1552 12.51C16.0186 12.3933 15.8386 12.335 15.6152 12.335C15.3919 12.335 15.2102 12.3933 15.0702 12.51C14.9336 12.6233 14.8652 12.7883 14.8652 13.005C14.8652 13.225 14.9336 13.3933 15.0702 13.51C15.2102 13.6233 15.3919 13.68 15.6152 13.68ZM18.9783 14.06C18.7649 14.06 18.5749 14.0183 18.4083 13.935C18.2449 13.8483 18.1133 13.7333 18.0133 13.59C17.9166 13.4433 17.8599 13.28 17.8433 13.1H18.2483C18.2783 13.2767 18.3566 13.4183 18.4833 13.525C18.6133 13.6283 18.7783 13.68 18.9783 13.68C19.2416 13.68 19.4566 13.5617 19.6233 13.325C19.7899 13.085 19.8849 12.7117 19.9083 12.205H19.8783C19.7883 12.3617 19.6733 12.49 19.5333 12.59C19.3933 12.69 19.1966 12.74 18.9433 12.74C18.7333 12.74 18.5449 12.6917 18.3783 12.595C18.2116 12.4983 18.0783 12.365 17.9783 12.195C17.8816 12.025 17.8333 11.8317 17.8333 11.615C17.8333 11.4017 17.8799 11.2067 17.9733 11.03C18.0699 10.85 18.2049 10.7067 18.3783 10.6C18.5549 10.4933 18.7599 10.44 18.9933 10.44C19.4333 10.44 19.7616 10.59 19.9783 10.89C20.1949 11.19 20.3033 11.5983 20.3033 12.115C20.3033 12.4983 20.2516 12.8367 20.1483 13.13C20.0449 13.42 19.8949 13.6483 19.6983 13.815C19.5016 13.9783 19.2616 14.06 18.9783 14.06ZM19.0233 12.36C19.2566 12.36 19.4433 12.2867 19.5833 12.14C19.7233 11.9933 19.7933 11.81 19.7933 11.59C19.7933 11.37 19.7233 11.1867 19.5833 11.04C19.4433 10.8933 19.2566 10.82 19.0233 10.82C18.7899 10.82 18.6033 10.8933 18.4633 11.04C18.3266 11.1867 18.2583 11.37 18.2583 11.59C18.2583 11.8133 18.3266 11.9983 18.4633 12.145C18.6033 12.2883 18.7899 12.36 19.0233 12.36ZM-1.5 19.06C-1.74 19.06 -1.94667 19.015 -2.12 18.925C-2.29333 18.835 -2.43 18.7133 -2.53 18.56C-2.63 18.4067 -2.69 18.2317 -2.71 18.035H-2.28C-2.25 18.225 -2.165 18.38 -2.025 18.5C-1.885 18.6167 -1.70833 18.675 -1.495 18.675C-1.245 18.675 -1.04833 18.595 -0.905 18.435C-0.761667 18.2717 -0.69 18.0667 -0.69 17.82C-0.69 17.56 -0.763333 17.3567 -0.91 17.21C-1.05667 17.06 -1.24667 16.985 -1.48 16.985C-1.66667 16.985 -1.82667 17.0283 -1.96 17.115C-2.09 17.1983 -2.195 17.305 -2.275 17.435H-2.675L-2.375 15.5H-0.505V15.885H-2.045L-2.23 16.925H-2.205C-2.12833 16.8417 -2.025 16.7683 -1.895 16.705C-1.76167 16.6417 -1.60833 16.61 -1.435 16.61C-1.205 16.61 -1.005 16.66 -0.835 16.76C-0.661667 16.8567 -0.526667 16.9967 -0.43 17.18C-0.333333 17.36 -0.285 17.5717 -0.285 17.815C-0.285 18.0417 -0.333333 18.25 -0.43 18.44C-0.523333 18.6267 -0.661667 18.7767 -0.845 18.89C-1.025 19.0033 -1.24333 19.06 -1.5 19.06ZM1.94805 19.06C1.71471 19.06 1.50805 19.0067 1.32805 18.9C1.15138 18.79 1.01138 18.6383 0.908047 18.445C0.804713 18.2483 0.753047 18.02 0.753047 17.76C0.753047 17.5 0.803047 17.2733 0.903047 17.08C1.00638 16.8833 1.14805 16.7317 1.32805 16.625C1.50805 16.515 1.71805 16.46 1.95805 16.46C2.19805 16.46 2.40305 16.515 2.57305 16.625C2.74305 16.7317 2.87305 16.8733 2.96305 17.05C3.05305 17.2267 3.09805 17.4167 3.09805 17.62C3.09805 17.6567 3.09638 17.6933 3.09305 17.73C3.09305 17.7667 3.09305 17.8083 3.09305 17.855H1.16805C1.17805 18.0383 1.21971 18.1917 1.29305 18.315C1.36971 18.435 1.46471 18.525 1.57805 18.585C1.69471 18.645 1.81805 18.675 1.94805 18.675C2.13138 18.675 2.27471 18.6367 2.37805 18.56C2.48138 18.4833 2.55971 18.3767 2.61305 18.24H3.02805C2.97138 18.47 2.85305 18.665 2.67305 18.825C2.49305 18.9817 2.25138 19.06 1.94805 19.06ZM1.94805 16.835C1.75471 16.835 1.58471 16.8933 1.43805 17.01C1.29471 17.1267 1.20638 17.29 1.17305 17.5H2.68305C2.66971 17.2933 2.59471 17.1317 2.45805 17.015C2.32471 16.895 2.15471 16.835 1.94805 16.835ZM5.28609 19.06C5.07276 19.06 4.88276 19.0183 4.71609 18.935C4.55276 18.8483 4.42109 18.7333 4.32109 18.59C4.22443 18.4433 4.16776 18.28 4.15109 18.1H4.55609C4.58609 18.2767 4.66443 18.4183 4.79109 18.525C4.92109 18.6283 5.08609 18.68 5.28609 18.68C5.54943 18.68 5.76443 18.5617 5.93109 18.325C6.09776 18.085 6.19276 17.7117 6.21609 17.205H6.18609C6.09609 17.3617 5.98109 17.49 5.84109 17.59C5.70109 17.69 5.50443 17.74 5.25109 17.74C5.04109 17.74 4.85276 17.6917 4.68609 17.595C4.51943 17.4983 4.38609 17.365 4.28609 17.195C4.18943 17.025 4.14109 16.8317 4.14109 16.615C4.14109 16.4017 4.18776 16.2067 4.28109 16.03C4.37776 15.85 4.51276 15.7067 4.68609 15.6C4.86276 15.4933 5.06776 15.44 5.30109 15.44C5.74109 15.44 6.06943 15.59 6.28609 15.89C6.50276 16.19 6.61109 16.5983 6.61109 17.115C6.61109 17.4983 6.55943 17.8367 6.45609 18.13C6.35276 18.42 6.20276 18.6483 6.00609 18.815C5.80943 18.9783 5.56943 19.06 5.28609 19.06ZM5.33109 17.36C5.56443 17.36 5.75109 17.2867 5.89109 17.14C6.03109 16.9933 6.10109 16.81 6.10109 16.59C6.10109 16.37 6.03109 16.1867 5.89109 16.04C5.75109 15.8933 5.56443 15.82 5.33109 15.82C5.09776 15.82 4.91109 15.8933 4.77109 16.04C4.63443 16.1867 4.56609 16.37 4.56609 16.59C4.56609 16.8133 4.63443 16.9983 4.77109 17.145C4.91109 17.2883 5.09776 17.36 5.33109 17.36ZM8.79414 19.06C8.56081 19.06 8.35414 19.0067 8.17414 18.9C7.99747 18.79 7.85747 18.6383 7.75414 18.445C7.65081 18.2483 7.59914 18.02 7.59914 17.76C7.59914 17.5 7.64914 17.2733 7.74914 17.08C7.85247 16.8833 7.99414 16.7317 8.17414 16.625C8.35414 16.515 8.56414 16.46 8.80414 16.46C9.04414 16.46 9.24914 16.515 9.41914 16.625C9.58914 16.7317 9.71914 16.8733 9.80914 17.05C9.89914 17.2267 9.94414 17.4167 9.94414 17.62C9.94414 17.6567 9.94247 17.6933 9.93914 17.73C9.93914 17.7667 9.93914 17.8083 9.93914 17.855H8.01414C8.02414 18.0383 8.06581 18.1917 8.13914 18.315C8.21581 18.435 8.31081 18.525 8.42414 18.585C8.54081 18.645 8.66414 18.675 8.79414 18.675C8.97747 18.675 9.12081 18.6367 9.22414 18.56C9.32747 18.4833 9.40581 18.3767 9.45914 18.24H9.87414C9.81747 18.47 9.69914 18.665 9.51914 18.825C9.33914 18.9817 9.09747 19.06 8.79414 19.06ZM8.79414 16.835C8.60081 16.835 8.43081 16.8933 8.28414 17.01C8.14081 17.1267 8.05247 17.29 8.01914 17.5H9.52914C9.51581 17.2933 9.44081 17.1317 9.30414 17.015C9.17081 16.895 9.00081 16.835 8.79414 16.835ZM12.2772 19.06C12.0872 19.06 11.9255 19.0217 11.7922 18.945C11.6622 18.865 11.5655 18.7567 11.5022 18.62H11.4722L11.4272 19H11.0822V15.4H11.5022V16.875C11.5655 16.765 11.6639 16.6683 11.7972 16.585C11.9339 16.5017 12.0939 16.46 12.2772 16.46C12.4905 16.46 12.6789 16.51 12.8422 16.61C13.0055 16.71 13.1339 16.8567 13.2272 17.05C13.3205 17.2433 13.3672 17.4783 13.3672 17.755C13.3672 18.035 13.3205 18.2733 13.2272 18.47C13.1339 18.6633 13.0039 18.81 12.8372 18.91C12.6739 19.01 12.4872 19.06 12.2772 19.06ZM12.2222 18.66C12.4322 18.66 12.6039 18.5867 12.7372 18.44C12.8739 18.29 12.9422 18.0633 12.9422 17.76C12.9422 17.4567 12.8739 17.2317 12.7372 17.085C12.6039 16.935 12.4322 16.86 12.2222 16.86C12.0122 16.86 11.8389 16.935 11.7022 17.085C11.5655 17.2317 11.4972 17.4567 11.4972 17.76C11.4972 18.0633 11.5655 18.29 11.7022 18.44C11.8389 18.5867 12.0122 18.66 12.2222 18.66ZM15.7002 19.06C15.5102 19.06 15.3486 19.0217 15.2152 18.945C15.0852 18.865 14.9886 18.7567 14.9252 18.62H14.8952L14.8502 19H14.5052V15.4H14.9252V16.875C14.9886 16.765 15.0869 16.6683 15.2202 16.585C15.3569 16.5017 15.5169 16.46 15.7002 16.46C15.9136 16.46 16.1019 16.51 16.2652 16.61C16.4286 16.71 16.5569 16.8567 16.6502 17.05C16.7436 17.2433 16.7902 17.4783 16.7902 17.755C16.7902 18.035 16.7436 18.2733 16.6502 18.47C16.5569 18.6633 16.4269 18.81 16.2602 18.91C16.0969 19.01 15.9102 19.06 15.7002 19.06ZM15.6452 18.66C15.8552 18.66 16.0269 18.5867 16.1602 18.44C16.2969 18.29 16.3652 18.0633 16.3652 17.76C16.3652 17.4567 16.2969 17.2317 16.1602 17.085C16.0269 16.935 15.8552 16.86 15.6452 16.86C15.4352 16.86 15.2619 16.935 15.1252 17.085C14.9886 17.2317 14.9202 17.4567 14.9202 17.76C14.9202 18.0633 14.9886 18.29 15.1252 18.44C15.2619 18.5867 15.4352 18.66 15.6452 18.66ZM17.9983 20.1V19.715H18.3033C18.4299 19.715 18.5199 19.69 18.5733 19.64C18.6266 19.59 18.6533 19.5017 18.6533 19.375V16.88H18.0383V16.52H18.6533V16.125C18.6533 15.8683 18.7149 15.6833 18.8383 15.57C18.9616 15.4567 19.1483 15.4 19.3983 15.4H19.9933V15.78H19.4233C19.2999 15.78 19.2099 15.8067 19.1533 15.86C19.0999 15.91 19.0733 15.9983 19.0733 16.125V16.52H19.9933V16.88H19.0733V19.375C19.0733 19.6317 19.0116 19.8167 18.8883 19.93C18.7649 20.0433 18.5799 20.1 18.3333 20.1H17.9983ZM-2.63 25V24.67C-2.27 24.3833 -1.95667 24.12 -1.69 23.88C-1.42 23.64 -1.21167 23.4083 -1.065 23.185C-0.918333 22.9617 -0.845 22.7333 -0.845 22.5C-0.845 22.29 -0.905 22.125 -1.025 22.005C-1.14167 21.8817 -1.3 21.82 -1.5 21.82C-1.65333 21.82 -1.78333 21.8533 -1.89 21.92C-1.99667 21.9867 -2.07667 22.075 -2.13 22.185C-2.18333 22.295 -2.21 22.4133 -2.21 22.54H-2.625C-2.62167 22.31 -2.57167 22.1133 -2.475 21.95C-2.375 21.7833 -2.24167 21.6567 -2.075 21.57C-1.905 21.4833 -1.71333 21.44 -1.5 21.44C-1.15667 21.44 -0.89 21.535 -0.7 21.725C-0.51 21.915 -0.415 22.17 -0.415 22.49C-0.415 22.7 -0.46 22.9017 -0.55 23.095C-0.64 23.285 -0.76 23.4683 -0.91 23.645C-1.06 23.8217 -1.22833 23.9917 -1.415 24.155C-1.60167 24.3183 -1.79 24.475 -1.98 24.625H-0.32V25H-2.63ZM1.92305 25.06C1.65971 25.06 1.42638 24.9867 1.22305 24.84C1.02305 24.6933 0.86638 24.485 0.753047 24.215C0.643047 23.945 0.588047 23.6233 0.588047 23.25C0.588047 22.8767 0.643047 22.555 0.753047 22.285C0.86638 22.015 1.02305 21.8067 1.22305 21.66C1.42638 21.5133 1.65971 21.44 1.92305 21.44C2.18971 21.44 2.42305 21.5133 2.62305 21.66C2.82305 21.8067 2.97805 22.015 3.08805 22.285C3.20138 22.555 3.25805 22.8767 3.25805 23.25C3.25805 23.6233 3.20138 23.945 3.08805 24.215C2.97805 24.485 2.82305 24.6933 2.62305 24.84C2.42305 24.9867 2.18971 25.06 1.92305 25.06ZM1.01805 23.25C1.01805 23.4767 1.04138 23.6817 1.08805 23.865C1.13805 24.045 1.20638 24.1967 1.29305 24.32L2.26305 21.915C2.15971 21.8583 2.04638 21.83 1.92305 21.83C1.74638 21.83 1.58971 21.8883 1.45305 22.005C1.31638 22.1183 1.20971 22.2817 1.13305 22.495C1.05638 22.705 1.01805 22.9567 1.01805 23.25ZM1.92305 24.675C2.09971 24.675 2.25638 24.6183 2.39305 24.505C2.52971 24.3883 2.63638 24.2233 2.71305 24.01C2.78971 23.7967 2.82805 23.5433 2.82805 23.25C2.82805 23.0233 2.80305 22.82 2.75305 22.64C2.70638 22.4567 2.63971 22.3033 2.55305 22.18L1.57805 24.59C1.68471 24.6467 1.79971 24.675 1.92305 24.675ZM5.41609 25.06C5.10943 25.06 4.85943 24.9867 4.66609 24.84C4.47609 24.69 4.33443 24.49 4.24109 24.24C4.15109 23.9867 4.10609 23.7017 4.10609 23.385C4.10609 23.0017 4.15943 22.665 4.26609 22.375C4.37276 22.0817 4.52609 21.8533 4.72609 21.69C4.92943 21.5233 5.17276 21.44 5.45609 21.44C5.67943 21.44 5.86943 21.4833 6.02609 21.57C6.18609 21.6533 6.31109 21.7683 6.40109 21.915C6.49443 22.0583 6.54943 22.22 6.56609 22.4H6.17109C6.13776 22.2233 6.05776 22.0833 5.93109 21.98C5.80443 21.8733 5.64609 21.82 5.45609 21.82C5.28943 21.82 5.13609 21.8733 4.99609 21.98C4.85943 22.0833 4.74609 22.245 4.65609 22.465C4.56943 22.6817 4.51943 22.9583 4.50609 23.295H4.53109C4.60776 23.1517 4.72609 23.0267 4.88609 22.92C5.04609 22.8133 5.23943 22.76 5.46609 22.76C5.67609 22.76 5.86443 22.8083 6.03109 22.905C6.19776 23.0017 6.32943 23.135 6.42609 23.305C6.52609 23.475 6.57609 23.6683 6.57609 23.885C6.57609 24.0983 6.52776 24.295 6.43109 24.475C6.33776 24.6517 6.20276 24.7933 6.02609 24.9C5.85276 25.0067 5.64943 25.06 5.41609 25.06ZM5.38609 24.68C5.61609 24.68 5.80109 24.6067 5.94109 24.46C6.08109 24.3133 6.15109 24.13 6.15109 23.91C6.15109 23.6867 6.08109 23.5033 5.94109 23.36C5.80109 23.2133 5.61609 23.14 5.38609 23.14C5.23276 23.14 5.09776 23.1733 4.98109 23.24C4.86776 23.3067 4.77776 23.3983 4.71109 23.515C4.64776 23.6317 4.61609 23.7633 4.61609 23.91C4.61609 24.0567 4.64776 24.1883 4.71109 24.305C4.77776 24.4217 4.86776 24.5133 4.98109 24.58C5.09776 24.6467 5.23276 24.68 5.38609 24.68ZM8.76914 25.06C8.53581 25.06 8.33081 25.0167 8.15414 24.93C7.98081 24.84 7.84414 24.7183 7.74414 24.565C7.64414 24.4117 7.59414 24.2367 7.59414 24.04C7.59414 23.82 7.65247 23.6333 7.76914 23.48C7.88581 23.3267 8.02081 23.22 8.17414 23.16V23.135C8.02747 23.065 7.90914 22.965 7.81914 22.835C7.73247 22.7017 7.68914 22.5467 7.68914 22.37C7.68914 22.2 7.73247 22.045 7.81914 21.905C7.90914 21.7617 8.03581 21.6483 8.19914 21.565C8.36247 21.4817 8.55247 21.44 8.76914 21.44C8.98247 21.44 9.16914 21.4817 9.32914 21.565C9.49247 21.6483 9.61914 21.7617 9.70914 21.905C9.80247 22.045 9.84914 22.2 9.84914 22.37C9.84914 22.5467 9.80414 22.7017 9.71414 22.835C9.62747 22.965 9.51081 23.065 9.36414 23.135V23.16C9.51747 23.22 9.65247 23.3267 9.76914 23.48C9.88581 23.6333 9.94414 23.82 9.94414 24.04C9.94414 24.2367 9.89414 24.4117 9.79414 24.565C9.69414 24.7183 9.55581 24.84 9.37914 24.93C9.20581 25.0167 9.00247 25.06 8.76914 25.06ZM8.76914 22.98C8.97581 22.98 9.13747 22.9267 9.25414 22.82C9.37414 22.71 9.43414 22.5683 9.43414 22.395C9.43414 22.225 9.37414 22.0867 9.25414 21.98C9.13747 21.87 8.97581 21.815 8.76914 21.815C8.56247 21.815 8.39914 21.87 8.27914 21.98C8.16247 22.0867 8.10414 22.225 8.10414 22.395C8.10414 22.5683 8.16247 22.71 8.27914 22.82C8.39914 22.9267 8.56247 22.98 8.76914 22.98ZM8.76914 24.68C8.99247 24.68 9.17247 24.6233 9.30914 24.51C9.44914 24.3933 9.51914 24.225 9.51914 24.005C9.51914 23.7883 9.44914 23.6233 9.30914 23.51C9.17247 23.3933 8.99247 23.335 8.76914 23.335C8.54581 23.335 8.36414 23.3933 8.22414 23.51C8.08747 23.6233 8.01914 23.7883 8.01914 24.005C8.01914 24.225 8.08747 24.3933 8.22414 24.51C8.36414 24.6233 8.54581 24.68 8.76914 24.68ZM12.1922 25.06C11.9589 25.06 11.7539 25.0167 11.5772 24.93C11.4039 24.84 11.2672 24.7183 11.1672 24.565C11.0672 24.4117 11.0172 24.2367 11.0172 24.04C11.0172 23.82 11.0755 23.6333 11.1922 23.48C11.3089 23.3267 11.4439 23.22 11.5972 23.16V23.135C11.4505 23.065 11.3322 22.965 11.2422 22.835C11.1555 22.7017 11.1122 22.5467 11.1122 22.37C11.1122 22.2 11.1555 22.045 11.2422 21.905C11.3322 21.7617 11.4589 21.6483 11.6222 21.565C11.7855 21.4817 11.9755 21.44 12.1922 21.44C12.4055 21.44 12.5922 21.4817 12.7522 21.565C12.9155 21.6483 13.0422 21.7617 13.1322 21.905C13.2255 22.045 13.2722 22.2 13.2722 22.37C13.2722 22.5467 13.2272 22.7017 13.1372 22.835C13.0505 22.965 12.9339 23.065 12.7872 23.135V23.16C12.9405 23.22 13.0755 23.3267 13.1922 23.48C13.3089 23.6333 13.3672 23.82 13.3672 24.04C13.3672 24.2367 13.3172 24.4117 13.2172 24.565C13.1172 24.7183 12.9789 24.84 12.8022 24.93C12.6289 25.0167 12.4255 25.06 12.1922 25.06ZM12.1922 22.98C12.3989 22.98 12.5605 22.9267 12.6772 22.82C12.7972 22.71 12.8572 22.5683 12.8572 22.395C12.8572 22.225 12.7972 22.0867 12.6772 21.98C12.5605 21.87 12.3989 21.815 12.1922 21.815C11.9855 21.815 11.8222 21.87 11.7022 21.98C11.5855 22.0867 11.5272 22.225 11.5272 22.395C11.5272 22.5683 11.5855 22.71 11.7022 22.82C11.8222 22.9267 11.9855 22.98 12.1922 22.98ZM12.1922 24.68C12.4155 24.68 12.5955 24.6233 12.7322 24.51C12.8722 24.3933 12.9422 24.225 12.9422 24.005C12.9422 23.7883 12.8722 23.6233 12.7322 23.51C12.5955 23.3933 12.4155 23.335 12.1922 23.335C11.9689 23.335 11.7872 23.3933 11.6472 23.51C11.5105 23.6233 11.4422 23.7883 11.4422 24.005C11.4422 24.225 11.5105 24.3933 11.6472 24.51C11.7872 24.6233 11.9689 24.68 12.1922 24.68ZM15.6552 25.06C15.4319 25.06 15.2319 25.0083 15.0552 24.905C14.8819 24.8017 14.7436 24.6533 14.6402 24.46C14.5369 24.2633 14.4852 24.03 14.4852 23.76C14.4852 23.49 14.5369 23.2583 14.6402 23.065C14.7436 22.8683 14.8836 22.7183 15.0602 22.615C15.2402 22.5117 15.4386 22.46 15.6552 22.46C15.9619 22.46 16.2069 22.5367 16.3902 22.69C16.5736 22.8433 16.6902 23.0483 16.7402 23.305H16.3102C16.2702 23.1683 16.1936 23.06 16.0802 22.98C15.9669 22.8967 15.8236 22.855 15.6502 22.855C15.5236 22.855 15.4036 22.8883 15.2902 22.955C15.1769 23.0217 15.0852 23.1217 15.0152 23.255C14.9452 23.3883 14.9102 23.5567 14.9102 23.76C14.9102 23.9633 14.9452 24.1333 15.0152 24.27C15.0852 24.4033 15.1769 24.5033 15.2902 24.57C15.4036 24.6367 15.5236 24.67 15.6502 24.67C15.8336 24.67 15.9786 24.6283 16.0852 24.545C16.1952 24.4617 16.2702 24.3517 16.3102 24.215H16.7402C16.6769 24.4783 16.5519 24.685 16.3652 24.835C16.1819 24.985 15.9452 25.06 15.6552 25.06ZM18.8283 25.06C18.6316 25.06 18.4683 25.025 18.3383 24.955C18.2083 24.885 18.1116 24.7933 18.0483 24.68C17.9849 24.5633 17.9533 24.4367 17.9533 24.3C17.9533 24.0467 18.0449 23.855 18.2283 23.725C18.4149 23.5917 18.6633 23.525 18.9733 23.525H19.6533V23.475C19.6533 23.0417 19.4549 22.825 19.0583 22.825C18.8983 22.825 18.7633 22.86 18.6533 22.93C18.5466 23 18.4783 23.11 18.4483 23.26H18.0183C18.0349 23.0933 18.0899 22.95 18.1833 22.83C18.2799 22.71 18.4033 22.6183 18.5533 22.555C18.7033 22.4917 18.8716 22.46 19.0583 22.46C19.4116 22.46 19.6683 22.5533 19.8283 22.74C19.9916 22.9233 20.0733 23.1683 20.0733 23.475V25H19.7133L19.6783 24.615H19.6433C19.5699 24.735 19.4716 24.84 19.3483 24.93C19.2283 25.0167 19.0549 25.06 18.8283 25.06ZM18.9033 24.69C19.0633 24.69 19.1983 24.6517 19.3083 24.575C19.4216 24.4983 19.5066 24.3967 19.5633 24.27C19.6233 24.1433 19.6533 24.005 19.6533 23.855H19.0083C18.7816 23.855 18.6216 23.8933 18.5283 23.97C18.4383 24.0467 18.3933 24.1483 18.3933 24.275C18.3933 24.405 18.4366 24.5067 18.5233 24.58C18.6099 24.6533 18.7366 24.69 18.9033 24.69Z" fill="url(#paint0_linear_6_8)"/>
<path id="Icon" d="M10.3891 10.3891L16 16M6.5 12C9.53757 12 12 9.53757 12 6.5C12 3.46243 9.53757 1 6.5 1C3.46243 1 1 3.46243 1 6.5C1 9.53757 3.46243 12 6.5 12Z" stroke="url(#paint1_linear_6_8)" stroke-width="2" stroke-linecap="round" stroke-linejoin="round"/>
</g>
</g>
</g>
<defs>
<linearGradient id="paint0_linear_6_8" x1="9" y1="-7" x2="9" y2="26" gradientUnits="userSpaceOnUse">
<stop stop-color="#F5F5F7"/>
<stop offset="0.5" stop-color="#DFDFF5"/>
<stop offset="1" stop-color="#F5F5F7"/>
</linearGradient>
<linearGradient id="paint1_linear_6_8" x1="8.5" y1="1" x2="8.5" y2="16" gradientUnits="userSpaceOnUse">
<stop stop-color="#DC41AE"/>
<stop offset="1" stop-color="#FFB487"/>
</linearGradient>
<clipPath id="clip0_6_8">
<rect width="1440" height="4218" fill="white" transform="translate(-221 -642)"/>
</clipPath>
<clipPath id="clip1_6_8">
<rect width="24" height="24" fill="white" transform="translate(-3 -3)"/>
</clipPath>
</defs>
</svg>
