<svg width="24" height="25" viewBox="0 0 24 25" fill="none" xmlns="http://www.w3.org/2000/svg">
<g id="Link &#226;&#134;&#146; SVG">
<path id="Vector" fill-rule="evenodd" clip-rule="evenodd" d="M19.812 5.98831C20.673 6.21831 21.35 6.89531 21.58 7.75631C21.998 9.31631 22 12.5703 22 12.5703C22 12.5703 22 15.8253 21.582 17.3843C21.4681 17.8081 21.2448 18.1945 20.9345 18.5048C20.6242 18.8151 20.2378 19.0384 19.814 19.1523C18.254 19.5713 12 19.5713 12 19.5713C12 19.5713 5.745 19.5713 4.186 19.1523C3.76227 19.0383 3.37592 18.815 3.06564 18.5047C2.75536 18.1944 2.53203 17.808 2.418 17.3843C2 15.8253 2 12.5703 2 12.5703C2 12.5703 2 9.31531 2.417 7.75631C2.53121 7.33267 2.75461 6.94643 3.06486 6.63617C3.37511 6.32592 3.76136 6.10252 4.185 5.98831C5.744 5.57031 11.998 5.57031 11.998 5.57031C11.998 5.57031 18.253 5.57031 19.812 5.98831ZM15.194 12.5703L10 15.5703V9.57031L15.194 12.5703Z" fill="#586081"/>
</g>
</svg>
