<svg xmlns="http://www.w3.org/2000/svg" width="245" height="102" viewBox="0 0 245 102" fill="none">
  <circle cx="64.5" cy="2" r="1" fill="#2E2A41"/>
  <circle cx="215.5" cy="22" r="1" fill="url(#paint0_linear_1520_1968)"/>
  <circle cx="20.5" cy="29" r="1" fill="#2E2A41"/>
  <circle cx="27.5" cy="62" r="1" fill="#2E2A41"/>
  <circle cx="1.5" cy="64" r="1" fill="url(#paint1_linear_1520_1968)"/>
  <circle cx="29.5" cy="89" r="1" fill="url(#paint2_linear_1520_1968)"/>
  <circle cx="163.5" cy="94" r="1" fill="url(#paint3_linear_1520_1968)"/>
  <circle cx="217.5" cy="90" r="1" fill="url(#paint4_linear_1520_1968)"/>
  <circle cx="207.5" cy="58" r="1" fill="#2E2A41"/>
  <circle cx="221.5" cy="65" r="1" fill="#2E2A41"/>
  <circle cx="243.5" cy="12" r="1" fill="#2E2A41"/>
  <circle cx="175.5" cy="17" r="1" fill="#2E2A41"/>
  <circle cx="56.5" cy="22" r="1" fill="#2E2A41"/>
  <circle cx="31.5" cy="8" r="1" fill="url(#paint5_linear_1520_1968)"/>
  <circle cx="76.5" cy="101" r="1" fill="#2E2A41"/>
  <circle cx="188.5" cy="1" r="1" fill="#2E2A41"/>
  <circle cx="108.5" cy="16" r="1" fill="url(#paint6_linear_1520_1968)"/>
  <defs>
    <linearGradient id="paint0_linear_1520_1968" x1="215.5" y1="21" x2="215.5" y2="23" gradientUnits="userSpaceOnUse">
      <stop stop-color="#CC94EE"/>
      <stop offset="1" stop-color="#EE94E5"/>
    </linearGradient>
    <linearGradient id="paint1_linear_1520_1968" x1="1.5" y1="63" x2="1.5" y2="65" gradientUnits="userSpaceOnUse">
      <stop stop-color="#FFA96C"/>
      <stop offset="1" stop-color="#FF6C6C"/>
    </linearGradient>
    <linearGradient id="paint2_linear_1520_1968" x1="29.5" y1="88" x2="29.5" y2="90" gradientUnits="userSpaceOnUse">
      <stop stop-color="#CC94EE"/>
      <stop offset="1" stop-color="#EE94E5"/>
    </linearGradient>
    <linearGradient id="paint3_linear_1520_1968" x1="163.5" y1="93" x2="163.5" y2="95" gradientUnits="userSpaceOnUse">
      <stop stop-color="#FFA698"/>
      <stop offset="1" stop-color="#C598FF"/>
    </linearGradient>
    <linearGradient id="paint4_linear_1520_1968" x1="217.5" y1="89" x2="217.5" y2="91" gradientUnits="userSpaceOnUse">
      <stop stop-color="#FFA96C"/>
      <stop offset="1" stop-color="#FF6C6C"/>
    </linearGradient>
    <linearGradient id="paint5_linear_1520_1968" x1="31.5" y1="7" x2="31.5" y2="9" gradientUnits="userSpaceOnUse">
      <stop stop-color="#CC94EE"/>
      <stop offset="1" stop-color="#EE94E5"/>
    </linearGradient>
    <linearGradient id="paint6_linear_1520_1968" x1="108.5" y1="15" x2="108.5" y2="17" gradientUnits="userSpaceOnUse">
      <stop stop-color="#FFA698"/>
      <stop offset="1" stop-color="#C598FF"/>
    </linearGradient>
  </defs>
</svg>