<svg width="927" height="558" viewBox="0 0 927 558" fill="none" xmlns="http://www.w3.org/2000/svg">
<path fill-rule="evenodd" clip-rule="evenodd" d="M1 -369H1.29937H463.231H463.531H463.83H925.761H926.061V-368.7V93.7004V94V94.2996V556.7V557H925.761H463.83H463.531H463.231H1.29937H1V556.7V94.2996V94V93.7004V-368.7V-369ZM1.59874 93.7004H78.0052V17.2162H1.59874V93.7004ZM78.604 93.7004H155.11V17.2162H78.604V93.7004ZM155.709 93.7004H232.116V17.2162H155.709V93.7004ZM232.714 93.7004H309.221V17.2162H232.714V93.7004ZM309.819 93.7004H386.226V17.2162H309.819V93.7004ZM386.825 93.7004H463.231V17.2162H386.825V93.7004ZM463.83 93.7004H540.236V17.2162H463.83V93.7004ZM540.835 93.7004H617.341V17.2162H540.835V93.7004ZM617.941 93.7004H694.347V17.2162H617.941V93.7004ZM694.945 93.7004H771.452V17.2162H694.945V93.7004ZM772.051 93.7004H848.457V17.2162H772.051V93.7004ZM849.056 93.7004H925.462V17.2162H849.056V93.7004ZM1.59874 94.2996V170.784H78.0052V94.2996H1.59874ZM78.604 94.2996V170.784H155.11V94.2996H78.604ZM155.709 94.2996V170.784H232.116V94.2996H155.709ZM232.714 94.2996V170.784H309.221V94.2996H232.714ZM309.819 94.2996V170.784H386.226V94.2996H309.819ZM386.825 94.2996V170.784H463.231V94.2996H386.825ZM925.462 94.2996H849.056V170.784H925.462V94.2996ZM848.457 94.2996H772.051V170.784H848.457V94.2996ZM771.452 94.2996H694.945V170.784H771.452V94.2996ZM694.347 94.2996H617.941V170.784H694.347V94.2996ZM617.341 94.2996H540.835V170.784H617.341V94.2996ZM540.236 94.2996H463.83V170.784H540.236V94.2996ZM386.825 -368.401H463.231V-291.917H386.825V-368.401ZM386.825 -291.317H463.231V-214.733H386.825V-291.317ZM386.825 -214.134H463.231V-137.65H386.825V-214.134ZM386.825 -137.05H463.231V-60.5669H386.825V-137.05ZM386.825 -59.9667H463.231V16.617H386.825V-59.9667ZM463.83 -291.917V-368.401H540.236V-291.917H463.83ZM463.83 -214.733V-291.317H540.236V-214.733H463.83ZM463.83 -137.65V-214.134H540.236V-137.65H463.83ZM463.83 -60.5669V-137.05H540.236V-60.5669H463.83ZM463.83 16.617V-59.9667H540.236V16.617H463.83ZM1.59874 -368.401V-291.917H78.0052V-368.401H1.59874ZM78.604 -368.401V-291.917H155.11V-368.401H78.604ZM155.709 -368.401V-291.917H232.116V-368.401H155.709ZM232.714 -368.401V-291.917H309.221V-368.401H232.714ZM309.819 -368.401V-291.917H386.226V-368.401H309.819ZM1.59874 16.617H78.0052V-59.9667H1.59874V16.617ZM1.59874 -60.5669H78.0052V-137.05H1.59874V-60.5669ZM1.59874 -137.65H78.0052V-214.134H1.59874V-137.65ZM1.59874 -214.733H78.0052V-291.317H1.59874V-214.733ZM78.604 -291.317V-214.733H155.11V-291.317H78.604ZM155.709 -291.317V-214.733H232.116V-291.317H155.709ZM232.714 -291.317V-214.733H309.221V-291.317H232.714ZM309.819 -291.317V-214.733H386.226V-291.317H309.819ZM386.226 -214.134H309.819V-137.65H386.226V-214.134ZM386.226 -137.05H309.819V-60.5669H386.226V-137.05ZM386.226 -59.9667H309.819V16.617H386.226V-59.9667ZM309.221 16.617V-59.9667H232.714V16.617H309.221ZM232.116 16.617V-59.9667H155.709V16.617H232.116ZM155.11 16.617V-59.9667H78.604V16.617H155.11ZM78.604 -60.5669H155.11V-137.05H78.604V-60.5669ZM78.604 -137.65H155.11V-214.134H78.604V-137.65ZM155.709 -214.134V-137.65H232.116V-214.134H155.709ZM232.714 -214.134V-137.65H309.221V-214.134H232.714ZM309.221 -137.05H232.714V-60.5669H309.221V-137.05ZM232.116 -60.5669V-137.05H155.709V-60.5669H232.116ZM540.835 -368.401V-291.917H617.341V-368.401H540.835ZM617.941 -368.401V-291.917H694.347V-368.401H617.941ZM694.945 -368.401V-291.917H771.452V-368.401H694.945ZM772.051 -368.401V-291.917H848.457V-368.401H772.051ZM849.056 -368.401V-291.917H925.462V-368.401H849.056ZM925.462 -291.317H849.056V-214.733H925.462V-291.317ZM925.462 -214.134H849.056V-137.65H925.462V-214.134ZM925.462 -137.05H849.056V-60.5669H925.462V-137.05ZM925.462 -59.9667H849.056V16.617H925.462V-59.9667ZM540.835 -291.317V-214.733H617.341V-291.317H540.835ZM617.941 -291.317V-214.733H694.347V-291.317H617.941ZM694.945 -291.317V-214.733H771.452V-291.317H694.945ZM772.051 -291.317V-214.733H848.457V-291.317H772.051ZM848.457 -214.134H772.051V-137.65H848.457V-214.134ZM848.457 -137.05H772.051V-60.5669H848.457V-137.05ZM848.457 -59.9667H772.051V16.617H848.457V-59.9667ZM771.452 16.617V-59.9667H694.945V16.617H771.452ZM694.347 16.617V-59.9667H617.941V16.617H694.347ZM617.341 16.617V-59.9667H540.835V16.617H617.341ZM540.835 -60.5669H617.341V-137.05H540.835V-60.5669ZM540.835 -137.65H617.341V-214.134H540.835V-137.65ZM617.941 -214.134V-137.65H694.347V-214.134H617.941ZM694.945 -214.134V-137.65H771.452V-214.134H694.945ZM771.452 -137.05H694.945V-60.5669H771.452V-137.05ZM694.347 -60.5669V-137.05H617.941V-60.5669H694.347ZM386.825 171.383H463.231V247.967H386.825V171.383ZM386.825 248.567H463.231V325.05H386.825V248.567ZM386.825 325.65H463.231V402.134H386.825V325.65ZM386.825 402.734H463.231V479.317H386.825V402.734ZM386.825 479.917H463.231V556.401H386.825V479.917ZM463.83 247.967V171.383H540.236V247.967H463.83ZM463.83 325.05V248.567H540.236V325.05H463.83ZM463.83 402.134V325.65H540.236V402.134H463.83ZM463.83 479.317V402.734H540.236V479.317H463.83ZM463.83 556.401V479.917H540.236V556.401H463.83ZM386.226 556.401V479.917H309.819V556.401H386.226ZM309.221 556.401V479.917H232.714V556.401H309.221ZM232.116 556.401V479.917H155.709V556.401H232.116ZM155.11 556.401V479.917H78.604V556.401H155.11ZM78.0052 556.401V479.917H1.59874V556.401H78.0052ZM1.59874 479.317H78.0052V402.734H1.59874V479.317ZM1.59874 402.134H78.0052V325.65H1.59874V402.134ZM1.59874 325.05H78.0052V248.567H1.59874V325.05ZM1.59874 247.967H78.0052V171.383H1.59874V247.967ZM78.604 171.383V247.967H155.11V171.383H78.604ZM155.709 171.383V247.967H232.116V171.383H155.709ZM232.714 171.383V247.967H309.221V171.383H232.714ZM309.819 171.383V247.967H386.226V171.383H309.819ZM386.226 248.567H309.819V325.05H386.226V248.567ZM386.226 325.65H309.819V402.134H386.226V325.65ZM386.226 402.734H309.819V479.317H386.226V402.734ZM309.221 479.317V402.734H232.714V479.317H309.221ZM232.116 479.317V402.734H155.709V479.317H232.116ZM155.11 479.317V402.734H78.604V479.317H155.11ZM78.604 402.134H155.11V325.65H78.604V402.134ZM78.604 325.05H155.11V248.567H78.604V325.05ZM155.709 248.567V325.05H232.116V248.567H155.709ZM232.714 248.567V325.05H309.221V248.567H232.714ZM309.221 325.65H232.714V402.134H309.221V325.65ZM232.116 402.134V325.65H155.709V402.134H232.116ZM925.462 171.383H849.056V247.967H925.462V171.383ZM925.462 248.567H849.056V325.05H925.462V248.567ZM925.462 325.65H849.056V402.134H925.462V325.65ZM925.462 402.734H849.056V479.317H925.462V402.734ZM925.462 479.917H849.056V556.401H925.462V479.917ZM848.457 556.401V479.917H772.051V556.401H848.457ZM771.452 556.401V479.917H694.945V556.401H771.452ZM694.347 556.401V479.917H617.941V556.401H694.347ZM617.341 556.401V479.917H540.835V556.401H617.341ZM540.835 171.383V247.967H617.341V171.383H540.835ZM617.941 171.383V247.967H694.347V171.383H617.941ZM694.945 171.383V247.967H771.452V171.383H694.945ZM772.051 171.383V247.967H848.457V171.383H772.051ZM848.457 248.567H772.051V325.05H848.457V248.567ZM848.457 325.65H772.051V402.134H848.457V325.65ZM848.457 402.734H772.051V479.317H848.457V402.734ZM771.452 479.317V402.734H694.945V479.317H771.452ZM694.347 479.317V402.734H617.941V479.317H694.347ZM617.341 479.317V402.734H540.835V479.317H617.341ZM540.835 402.134H617.341V325.65H540.835V402.134ZM540.835 325.05H617.341V248.567H540.835V325.05ZM617.941 248.567V325.05H694.347V248.567H617.941ZM694.945 248.567V325.05H771.452V248.567H694.945ZM771.452 325.65H694.945V402.134H771.452V325.65ZM694.347 402.134V325.65H617.941V402.134H694.347Z" stroke="url(#paint0_radial_511_6503)"/>
<defs>
<radialGradient id="paint0_radial_511_6503" cx="0" cy="0" r="1" gradientUnits="userSpaceOnUse" gradientTransform="translate(463.531 94) rotate(90) scale(336.215 384.856)">
<stop stop-color="white" stop-opacity="0.2"/>
<stop offset="1" stop-opacity="0"/>
</radialGradient>
</defs>
</svg>
