<svg width="140" height="34" viewBox="0 0 140 34" fill="none" xmlns="http://www.w3.org/2000/svg">
<path d="M45.5557 7.61719C45.5093 7.183 45.3138 6.84493 44.9691 6.60298C44.6277 6.36103 44.1835 6.24006 43.6367 6.24006C43.2522 6.24006 42.9224 6.29806 42.6473 6.41406C42.3722 6.53007 42.1618 6.6875 42.0159 6.88636C41.8701 7.08523 41.7955 7.31226 41.7922 7.56747C41.7922 7.77959 41.8403 7.96354 41.9364 8.11932C42.0358 8.27509 42.1701 8.40767 42.3391 8.51705C42.5081 8.62311 42.6954 8.71259 42.9009 8.78551C43.1064 8.85843 43.3135 8.91974 43.5223 8.96946L44.4769 9.2081C44.8613 9.29758 45.2309 9.41856 45.5855 9.57102C45.9435 9.72348 46.2633 9.91572 46.5451 10.1477C46.8301 10.3797 47.0555 10.6598 47.2212 10.9879C47.3869 11.3161 47.4698 11.7005 47.4698 12.1413C47.4698 12.7379 47.3173 13.2633 47.0124 13.7173C46.7075 14.1681 46.2666 14.5211 45.6899 14.7763C45.1166 15.0282 44.4222 15.1541 43.6068 15.1541C42.8147 15.1541 42.127 15.0315 41.5436 14.7862C40.9636 14.541 40.5095 14.183 40.1814 13.7124C39.8566 13.2417 39.6809 12.6683 39.6544 11.9922H41.4691C41.4956 12.3468 41.605 12.6418 41.7972 12.8771C41.9894 13.1125 42.2397 13.2881 42.5479 13.4041C42.8594 13.5201 43.2075 13.5781 43.5919 13.5781C43.993 13.5781 44.3443 13.5185 44.6459 13.3991C44.9508 13.2765 45.1895 13.1075 45.3618 12.892C45.5342 12.6733 45.622 12.4181 45.6253 12.1264C45.622 11.8613 45.5441 11.6425 45.3916 11.4702C45.2392 11.2945 45.0254 11.1487 44.7503 11.0327C44.4785 10.9134 44.1603 10.8073 43.7958 10.7145L42.6374 10.4162C41.7988 10.2008 41.136 9.87429 40.6487 9.43679C40.1648 8.99598 39.9229 8.41098 39.9229 7.68182C39.9229 7.08191 40.0853 6.55658 40.4101 6.10582C40.7382 5.65507 41.184 5.3054 41.7475 5.05682C42.3109 4.80492 42.9489 4.67898 43.6615 4.67898C44.3841 4.67898 45.0171 4.80492 45.5607 5.05682C46.1076 5.3054 46.5368 5.65175 46.8483 6.09588C47.1599 6.53669 47.3206 7.0438 47.3306 7.61719H45.5557ZM51.232 15.1541C50.7481 15.1541 50.3123 15.0679 49.9245 14.8956C49.54 14.7199 49.2351 14.4614 49.0097 14.12C48.7877 13.7786 48.6766 13.3577 48.6766 12.8572C48.6766 12.4264 48.7562 12.0701 48.9153 11.7884C49.0744 11.5066 49.2914 11.2812 49.5665 11.1122C49.8416 10.9432 50.1515 10.8156 50.4962 10.7294C50.8442 10.6399 51.2039 10.5753 51.5751 10.5355C52.0225 10.4891 52.3854 10.4477 52.6638 10.4112C52.9422 10.3714 53.1444 10.3118 53.2704 10.2322C53.3996 10.1494 53.4643 10.0218 53.4643 9.84943V9.8196C53.4643 9.44508 53.3532 9.15507 53.1312 8.94957C52.9091 8.74408 52.5893 8.64134 52.1717 8.64134C51.7308 8.64134 51.3812 8.73745 51.1226 8.92969C50.8674 9.12192 50.6951 9.34896 50.6056 9.6108L48.9252 9.37216C49.0578 8.90814 49.2765 8.52036 49.5815 8.20881C49.8864 7.89394 50.2592 7.65862 50.7001 7.50284C51.1409 7.34375 51.6281 7.2642 52.1617 7.2642C52.5296 7.2642 52.8958 7.30729 53.2604 7.39347C53.625 7.47964 53.9581 7.62216 54.2597 7.82102C54.5613 8.01657 54.8033 8.28338 54.9856 8.62145C55.1712 8.95952 55.264 9.3821 55.264 9.8892V15H53.5339V13.951H53.4742C53.3648 14.1631 53.2107 14.362 53.0119 14.5476C52.8163 14.7299 52.5694 14.8774 52.2711 14.9901C51.9761 15.0994 51.6297 15.1541 51.232 15.1541ZM51.6994 13.8317C52.0606 13.8317 52.3738 13.7604 52.639 13.6179C52.9041 13.4721 53.108 13.2798 53.2505 13.0412C53.3963 12.8026 53.4692 12.5424 53.4692 12.2607V11.3608C53.4129 11.4072 53.3168 11.4503 53.1809 11.4901C53.0483 11.5298 52.8992 11.5646 52.7334 11.5945C52.5677 11.6243 52.4037 11.6508 52.2413 11.674C52.0789 11.6972 51.938 11.7171 51.8187 11.7337C51.5502 11.7701 51.3099 11.8298 51.0978 11.9126C50.8857 11.9955 50.7183 12.1115 50.5957 12.2607C50.473 12.4065 50.4117 12.5954 50.4117 12.8274C50.4117 13.1589 50.5327 13.4091 50.7746 13.5781C51.0166 13.7472 51.3248 13.8317 51.6994 13.8317ZM57.0736 15V7.36364H58.7938V8.66122H58.8833C59.0424 8.22372 59.3059 7.88234 59.6738 7.63707C60.0417 7.38849 60.4808 7.2642 60.9913 7.2642C61.5083 7.2642 61.9441 7.39015 62.2988 7.64205C62.6567 7.89062 62.9086 8.23035 63.0545 8.66122H63.134C63.303 8.23698 63.5881 7.89891 63.9891 7.64702C64.3935 7.39181 64.8724 7.2642 65.4259 7.2642C66.1286 7.2642 66.702 7.48627 67.1461 7.9304C67.5902 8.37453 67.8123 9.02249 67.8123 9.87429V15H66.0076V10.1527C66.0076 9.67874 65.8816 9.33239 65.6298 9.11364C65.3779 8.89157 65.0696 8.78054 64.705 8.78054C64.2708 8.78054 63.9311 8.91643 63.6859 9.18821C63.4439 9.45668 63.3229 9.80634 63.3229 10.2372V15H61.558V10.0781C61.558 9.68371 61.4387 9.36884 61.2001 9.13352C60.9647 8.8982 60.6565 8.78054 60.2753 8.78054C60.0168 8.78054 59.7815 8.84683 59.5694 8.9794C59.3573 9.10866 59.1882 9.29261 59.0623 9.53125C58.9363 9.76657 58.8734 10.0417 58.8734 10.3565V15H57.0736ZM69.6381 17.8636V7.36364H71.408V8.62642H71.5124C71.6052 8.44081 71.7361 8.24361 71.9051 8.0348C72.0742 7.82268 72.3029 7.64205 72.5912 7.4929C72.8796 7.34044 73.2475 7.2642 73.6949 7.2642C74.2849 7.2642 74.8168 7.41501 75.2908 7.71662C75.7681 8.01491 76.1459 8.45739 76.4243 9.04403C76.706 9.62737 76.8469 10.3433 76.8469 11.1918C76.8469 12.0303 76.7094 12.7429 76.4343 13.3295C76.1592 13.9162 75.7846 14.3636 75.3107 14.6719C74.8367 14.9801 74.2998 15.1342 73.6999 15.1342C73.2624 15.1342 72.8995 15.0613 72.6111 14.9155C72.3228 14.7696 72.0907 14.594 71.9151 14.3885C71.7427 14.1797 71.6085 13.9825 71.5124 13.7969H71.4378V17.8636H69.6381ZM71.403 11.1818C71.403 11.6757 71.4726 12.1082 71.6118 12.4794C71.7543 12.8506 71.9582 13.1406 72.2233 13.3494C72.4918 13.5549 72.8166 13.6577 73.1978 13.6577C73.5955 13.6577 73.9286 13.5516 74.197 13.3395C74.4655 13.1241 74.6677 12.8307 74.8036 12.4595C74.9428 12.085 75.0124 11.6591 75.0124 11.1818C75.0124 10.7079 74.9444 10.2869 74.8085 9.91903C74.6727 9.55114 74.4705 9.26278 74.202 9.05398C73.9335 8.84517 73.5988 8.74077 73.1978 8.74077C72.8133 8.74077 72.4868 8.84186 72.2184 9.04403C71.9499 9.24621 71.746 9.52959 71.6068 9.89418C71.471 10.2588 71.403 10.688 71.403 11.1818ZM80.1878 4.81818V15H78.3881V4.81818H80.1878ZM85.4192 15.1491C84.6535 15.1491 83.9923 14.9901 83.4355 14.6719C82.882 14.3504 82.4561 13.8963 82.1578 13.3097C81.8595 12.7197 81.7104 12.0253 81.7104 11.2266C81.7104 10.4411 81.8595 9.75166 82.1578 9.15838C82.4594 8.56179 82.8803 8.09777 83.4206 7.76633C83.9608 7.43158 84.5955 7.2642 85.3247 7.2642C85.7954 7.2642 86.2395 7.34044 86.6571 7.4929C87.078 7.64205 87.4492 7.87405 87.7707 8.18892C88.0955 8.50379 88.3507 8.90483 88.5364 9.39205C88.722 9.87595 88.8148 10.4527 88.8148 11.1222V11.674H82.5555V10.4609H87.0896C87.0863 10.1162 87.0117 9.80966 86.8659 9.54119C86.7201 9.26941 86.5162 9.05563 86.2544 8.89986C85.9959 8.74408 85.6943 8.66619 85.3496 8.66619C84.9817 8.66619 84.6585 8.75568 84.3801 8.93466C84.1017 9.11032 83.8846 9.34233 83.7288 9.63068C83.5764 9.91572 83.4985 10.2289 83.4952 10.5703V11.6293C83.4952 12.0734 83.5764 12.4545 83.7388 12.7727C83.9012 13.0876 84.1282 13.3295 84.4199 13.4986C84.7115 13.6643 85.0529 13.7472 85.444 13.7472C85.7059 13.7472 85.9428 13.7107 86.155 13.6378C86.3671 13.5616 86.551 13.4505 86.7068 13.3047C86.8626 13.1589 86.9802 12.9782 87.0598 12.7628L88.7402 12.9517C88.6341 13.3958 88.432 13.7836 88.1337 14.1151C87.8387 14.4432 87.4608 14.6984 87.0001 14.8807C86.5394 15.0597 86.0124 15.1491 85.4192 15.1491ZM93.8895 15V4.81818H97.7077C98.4899 4.81818 99.1461 4.95407 99.6764 5.22585C100.21 5.49763 100.613 5.87879 100.885 6.36932C101.16 6.85653 101.297 7.42495 101.297 8.07457C101.297 8.72751 101.158 9.29427 100.88 9.77486C100.604 10.2521 100.198 10.6217 99.6615 10.8835C99.1246 11.142 98.465 11.2713 97.6828 11.2713H94.9634V9.74006H97.4343C97.8916 9.74006 98.2662 9.67708 98.5578 9.55114C98.8495 9.42187 99.0649 9.23461 99.2041 8.98935C99.3467 8.74077 99.4179 8.43584 99.4179 8.07457C99.4179 7.7133 99.3467 7.40507 99.2041 7.14986C99.0616 6.89134 98.8445 6.69579 98.5529 6.56321C98.2612 6.42732 97.885 6.35938 97.4243 6.35938H95.734V15H93.8895ZM99.1495 10.3864L101.67 15H99.6118L97.136 10.3864H99.1495ZM106.187 15.1491C105.421 15.1491 104.76 14.9901 104.203 14.6719C103.65 14.3504 103.224 13.8963 102.925 13.3097C102.627 12.7197 102.478 12.0253 102.478 11.2266C102.478 10.4411 102.627 9.75166 102.925 9.15838C103.227 8.56179 103.648 8.09777 104.188 7.76633C104.728 7.43158 105.363 7.2642 106.092 7.2642C106.563 7.2642 107.007 7.34044 107.425 7.4929C107.846 7.64205 108.217 7.87405 108.538 8.18892C108.863 8.50379 109.118 8.90483 109.304 9.39205C109.49 9.87595 109.582 10.4527 109.582 11.1222V11.674H103.323V10.4609H107.857C107.854 10.1162 107.779 9.80966 107.633 9.54119C107.488 9.26941 107.284 9.05563 107.022 8.89986C106.763 8.74408 106.462 8.66619 106.117 8.66619C105.749 8.66619 105.426 8.75568 105.148 8.93466C104.869 9.11032 104.652 9.34233 104.496 9.63068C104.344 9.91572 104.266 10.2289 104.263 10.5703V11.6293C104.263 12.0734 104.344 12.4545 104.506 12.7727C104.669 13.0876 104.896 13.3295 105.187 13.4986C105.479 13.6643 105.821 13.7472 106.212 13.7472C106.473 13.7472 106.71 13.7107 106.923 13.6378C107.135 13.5616 107.319 13.4505 107.474 13.3047C107.63 13.1589 107.748 12.9782 107.827 12.7628L109.508 12.9517C109.402 13.3958 109.2 13.7836 108.901 14.1151C108.606 14.4432 108.228 14.6984 107.768 14.8807C107.307 15.0597 106.78 15.1491 106.187 15.1491ZM111.105 17.8636V7.36364H112.875V8.62642H112.979C113.072 8.44081 113.203 8.24361 113.372 8.0348C113.541 7.82268 113.77 7.64205 114.058 7.4929C114.346 7.34044 114.714 7.2642 115.162 7.2642C115.752 7.2642 116.284 7.41501 116.758 7.71662C117.235 8.01491 117.613 8.45739 117.891 9.04403C118.173 9.62737 118.314 10.3433 118.314 11.1918C118.314 12.0303 118.176 12.7429 117.901 13.3295C117.626 13.9162 117.251 14.3636 116.777 14.6719C116.304 14.9801 115.767 15.1342 115.167 15.1342C114.729 15.1342 114.366 15.0613 114.078 14.9155C113.79 14.7696 113.558 14.594 113.382 14.3885C113.21 14.1797 113.075 13.9825 112.979 13.7969H112.905V17.8636H111.105ZM112.87 11.1818C112.87 11.6757 112.939 12.1082 113.079 12.4794C113.221 12.8506 113.425 13.1406 113.69 13.3494C113.959 13.5549 114.283 13.6577 114.665 13.6577C115.062 13.6577 115.395 13.5516 115.664 13.3395C115.932 13.1241 116.134 12.8307 116.27 12.4595C116.41 12.085 116.479 11.6591 116.479 11.1818C116.479 10.7079 116.411 10.2869 116.275 9.91903C116.139 9.55114 115.937 9.26278 115.669 9.05398C115.4 8.84517 115.066 8.74077 114.665 8.74077C114.28 8.74077 113.954 8.84186 113.685 9.04403C113.417 9.24621 113.213 9.52959 113.074 9.89418C112.938 10.2588 112.87 10.688 112.87 11.1818ZM123.186 15.1491C122.44 15.1491 121.794 14.9851 121.247 14.657C120.7 14.3288 120.276 13.8698 119.974 13.2798C119.676 12.6899 119.527 12.0005 119.527 11.2116C119.527 10.4228 119.676 9.73177 119.974 9.13849C120.276 8.54522 120.7 8.08452 121.247 7.75639C121.794 7.42827 122.44 7.2642 123.186 7.2642C123.932 7.2642 124.578 7.42827 125.125 7.75639C125.672 8.08452 126.094 8.54522 126.393 9.13849C126.694 9.73177 126.845 10.4228 126.845 11.2116C126.845 12.0005 126.694 12.6899 126.393 13.2798C126.094 13.8698 125.672 14.3288 125.125 14.657C124.578 14.9851 123.932 15.1491 123.186 15.1491ZM123.196 13.7074C123.6 13.7074 123.938 13.5964 124.21 13.3743C124.482 13.1489 124.684 12.8473 124.817 12.4695C124.952 12.0916 125.02 11.6707 125.02 11.2067C125.02 10.7393 124.952 10.3168 124.817 9.93892C124.684 9.55777 124.482 9.2545 124.21 9.02912C123.938 8.80374 123.6 8.69105 123.196 8.69105C122.782 8.69105 122.437 8.80374 122.162 9.02912C121.89 9.2545 121.686 9.55777 121.55 9.93892C121.418 10.3168 121.351 10.7393 121.351 11.2067C121.351 11.6707 121.418 12.0916 121.55 12.4695C121.686 12.8473 121.89 13.1489 122.162 13.3743C122.437 13.5964 122.782 13.7074 123.196 13.7074ZM128.372 15V7.36364H130.117V8.63636H130.197C130.336 8.19555 130.575 7.85582 130.913 7.61719C131.254 7.37524 131.644 7.25426 132.081 7.25426C132.181 7.25426 132.292 7.25923 132.414 7.26918C132.54 7.2758 132.645 7.2874 132.728 7.30398V8.95952C132.651 8.933 132.53 8.9098 132.365 8.88991C132.202 8.86671 132.045 8.85511 131.892 8.85511C131.564 8.85511 131.269 8.92637 131.007 9.06889C130.749 9.2081 130.545 9.40199 130.396 9.65057C130.247 9.89915 130.172 10.1858 130.172 10.5107V15H128.372ZM138.147 7.36364V8.75568H133.757V7.36364H138.147ZM134.841 5.53409H136.64V12.7031C136.64 12.9451 136.677 13.1307 136.75 13.2599C136.826 13.3859 136.925 13.4721 137.048 13.5185C137.171 13.5649 137.306 13.5881 137.456 13.5881C137.568 13.5881 137.671 13.5798 137.764 13.5632C137.86 13.5466 137.933 13.5317 137.983 13.5185L138.286 14.9254C138.19 14.9586 138.052 14.995 137.873 15.0348C137.698 15.0746 137.482 15.0978 137.227 15.1044C136.776 15.1177 136.37 15.0497 136.009 14.9006C135.648 14.7481 135.361 14.5128 135.149 14.1946C134.94 13.8764 134.837 13.4787 134.841 13.0014V5.53409Z" fill="#FE8CBC"/>
<path d="M4.60445 30.8807C4.4471 31.6941 4.97889 32.481 5.79224 32.6383C6.60558 32.7957 7.39249 32.2639 7.54984 31.4505L4.60445 30.8807ZM26.5467 12.0062C27.3676 11.8952 27.9432 11.1397 27.8322 10.3188C27.7212 9.49782 26.9658 8.92227 26.1448 9.03324L26.5467 12.0062ZM3.69014 25.4751C3.26327 24.7651 2.34167 24.5356 1.63169 24.9624C0.921708 25.3893 0.692202 26.3109 1.11907 27.0209L3.69014 25.4751ZM5.20054 30.8982L3.91501 31.6712L3.91573 31.6724L5.20054 30.8982ZM7.0474 31.4348L6.43446 30.0658L6.43322 30.0663L7.0474 31.4348ZM12.9234 30.4476C13.6795 30.1091 14.0181 29.2217 13.6795 28.4656C13.341 27.7095 12.4537 27.371 11.6976 27.7095L12.9234 30.4476ZM6.07714 31.1656C7.54984 31.4505 7.54976 31.4509 7.5497 31.4512C7.54969 31.4513 7.54963 31.4516 7.54961 31.4517C7.54955 31.452 7.54953 31.4521 7.54953 31.4521C7.54953 31.4521 7.54964 31.4515 7.54985 31.4505C7.55028 31.4483 7.55113 31.444 7.55242 31.4377C7.55498 31.425 7.55928 31.4041 7.5654 31.3753C7.57763 31.3177 7.5971 31.2286 7.62445 31.1112C7.67917 30.8762 7.76528 30.5282 7.88783 30.0918C8.13328 29.2176 8.52291 27.9955 9.09576 26.6191C10.251 23.8434 12.1045 20.5535 14.9208 18.1767L12.9859 15.8841C9.65724 18.6932 7.57271 22.471 6.32606 25.4664C5.69797 26.9755 5.27071 28.3149 4.99952 29.2808C4.86374 29.7644 4.76659 30.1561 4.70262 30.4308C4.67063 30.5682 4.6469 30.6764 4.63077 30.7524C4.6227 30.7904 4.61653 30.8204 4.61217 30.8419C4.61 30.8527 4.60827 30.8613 4.60698 30.8678C4.60634 30.871 4.60581 30.8737 4.60539 30.8759C4.60518 30.877 4.60499 30.8779 4.60484 30.8787C4.60476 30.8791 4.60466 30.8796 4.60462 30.8798C4.60453 30.8803 4.60445 30.8807 6.07714 31.1656ZM14.9208 18.1767C20.8453 13.1767 25.5093 12.1464 26.5467 12.0062L26.1448 9.03324C24.5482 9.24907 19.351 10.5122 12.9859 15.8841L14.9208 18.1767ZM1.11907 27.0209L3.91501 31.6712L6.48608 30.1253L3.69014 25.4751L1.11907 27.0209ZM3.91573 31.6724C4.704 32.9806 6.33229 33.3999 7.66158 32.8033L6.43322 30.0663C6.41735 30.0735 6.4145 30.0689 6.42448 30.0718C6.42942 30.0732 6.43907 30.077 6.45117 30.0861C6.46398 30.0958 6.4763 30.1091 6.48535 30.1241L3.91573 31.6724ZM7.66033 32.8039L12.9234 30.4476L11.6976 27.7095L6.43446 30.0658L7.66033 32.8039Z" fill="#FE8CBC"/>
</svg>
