<svg xmlns="http://www.w3.org/2000/svg" width="138" height="29" viewBox="0 0 138 29" fill="none">
  <g clip-path="url(#clip0_1504_1243)">
    <path d="M35.0643 12.0598C35.0643 6.92935 38.0639 4.58386 42.0043 4.58386C44.532 4.58386 46.6209 5.65499 47.7992 7.70111C48.9775 5.65499 51.0333 4.58386 53.594 4.58386C57.5345 4.58386 60.534 6.92935 60.534 12.0598V21.5818H56.8943V12.0598C56.8943 9.17596 55.3794 7.94005 53.2574 7.94005C51.1354 7.94005 49.6508 9.24737 49.6508 12.0598V21.5818H46.0138V12.0598C46.0138 9.24463 44.4299 7.94005 42.341 7.94005C40.2521 7.94005 38.704 9.17871 38.704 12.0598V21.5818H35.0643V12.0598Z" fill="white"/>
    <path d="M63.161 13.4577C63.161 8.19273 66.867 4.57288 72.1541 4.57288C77.3777 4.57288 81.0146 8.09385 81.0146 13.4248V21.5818H77.6785V18.1624C76.6354 20.7111 74.2761 22.0075 71.5139 22.0075C67.3305 22.0185 63.161 19.0358 63.161 13.4577ZM77.3777 13.2902C77.3777 10.1729 75.2888 7.92632 72.1209 7.92632C68.9531 7.92632 66.8311 10.1729 66.8311 13.2902C66.8311 16.4074 68.9558 18.676 72.1209 18.676C75.286 18.676 77.3777 16.4184 77.3777 13.3012V13.2902Z" fill="white"/>
    <path d="M83.6416 13.3012C83.6416 8.27237 87.3475 4.58386 92.6015 4.58386C97.0829 4.58386 100.386 7.26442 101.228 11.1205H97.5547C96.7793 9.19794 94.994 7.9373 92.6015 7.9373C89.4364 7.9373 87.3144 10.1839 87.3144 13.3012C87.3144 16.4184 89.4364 18.676 92.6015 18.676C94.994 18.676 96.7793 17.4016 97.5547 15.4901H101.228C100.4 19.3352 97.0884 22.0295 92.6015 22.0295C87.3475 22.0185 83.6416 18.33 83.6416 13.3012Z" fill="white"/>
    <path d="M103.855 11.8922C103.855 6.96231 106.785 4.58386 111.098 4.58386C115.411 4.58386 118.306 6.96231 118.306 11.9609V12.0845H114.702V11.8922C114.702 9.04139 113.253 7.9373 111.098 7.9373C108.943 7.9373 107.492 9.03589 107.492 11.8922V21.5818H103.855V11.8922Z" fill="white"/>
    <path d="M138 12.1284C138 13.639 137.939 15.1303 137.374 16.553C136.206 19.4999 134.002 21.222 130.917 21.8262C129.468 22.0876 127.99 22.1522 126.524 22.0185C125.277 21.9294 124.053 21.643 122.898 21.1698C122.309 20.9554 121.781 20.6003 121.362 20.1358C120.943 19.6714 120.645 19.1116 120.494 18.5057C120.284 17.6462 120.146 16.7707 120.083 15.8883C120.011 15.0095 120.031 14.1196 120.044 13.2352C120.066 11.5571 120.676 9.11554 121.794 7.92906C122.808 6.57099 124.261 5.6013 125.908 5.18259C127.255 4.8536 128.631 4.65584 130.017 4.59209C131.146 4.53827 132.277 4.55662 133.403 4.64702C135.61 4.83378 136.957 5.9516 137.52 8.07188C137.605 8.35486 137.667 8.64417 137.705 8.93701C137.905 9.98901 138.004 11.0577 138 12.1284ZM134.239 13.4577C134.239 10.4036 132.487 8.35751 129.664 7.98399C128.654 7.83059 127.622 7.97828 126.696 8.40843C125.771 8.83858 124.995 9.5319 124.465 10.4009C123.89 11.3997 123.637 12.55 123.739 13.6967C123.888 15.6878 124.733 17.2671 126.609 18.124C128.485 18.9809 130.401 18.8847 132.128 17.6873C133.651 16.6354 134.195 15.0754 134.239 13.4577Z" fill="white"/>
    <path d="M0 22.2135C0 18.2998 2.88362 15.4297 6.97312 15.4297C11.0626 15.4297 13.949 18.2998 13.949 22.2135C13.949 26.1272 11.0654 29 6.97312 29C2.88086 29 0 26.1272 0 22.2135Z" fill="url(#paint0_linear_1504_1243)"/>
    <path d="M14.2719 0C7.01457 0 1.89579 5.09196 1.89579 12.0378C1.8934 13.0397 2.00635 14.0386 2.23244 15.015C3.66774 14.1729 5.30721 13.7379 6.97317 13.7571C12.0009 13.7571 15.6461 17.3028 15.6461 22.2135C15.6467 22.8218 15.5885 23.4289 15.4723 24.0261C22.0756 23.4961 26.6453 18.5936 26.6453 12.0378C26.6453 5.09196 21.5237 0 14.2719 0Z" fill="url(#paint1_linear_1504_1243)"/>
  </g>
  <defs>
    <linearGradient id="paint0_linear_1504_1243" x1="2.02268" y1="17.2836" x2="11.8796" y2="27.1899" gradientUnits="userSpaceOnUse">
      <stop stop-color="#FDBB39"/>
      <stop offset="0.11" stop-color="#FFAC5C"/>
      <stop offset="0.22" stop-color="#FFA180"/>
      <stop offset="0.33" stop-color="#FF9DA5"/>
      <stop offset="0.44" stop-color="#FF9DC7"/>
      <stop offset="0.56" stop-color="#FFA7E5"/>
      <stop offset="0.67" stop-color="#EFB4FB"/>
      <stop offset="0.78" stop-color="#D1C1FF"/>
      <stop offset="0.89" stop-color="#B2C7FF"/>
      <stop offset="1" stop-color="#9DCEFF"/>
    </linearGradient>
    <linearGradient id="paint1_linear_1504_1243" x1="6.1205" y1="2.66133" x2="23.6098" y2="20.2333" gradientUnits="userSpaceOnUse">
      <stop stop-color="#FDBB39"/>
      <stop offset="0.11" stop-color="#FFAC5C"/>
      <stop offset="0.22" stop-color="#FFA180"/>
      <stop offset="0.33" stop-color="#FF9DA5"/>
      <stop offset="0.44" stop-color="#FF9DC7"/>
      <stop offset="0.56" stop-color="#FFA7E5"/>
      <stop offset="0.67" stop-color="#EFB4FB"/>
      <stop offset="0.78" stop-color="#D1C1FF"/>
      <stop offset="0.89" stop-color="#B2C7FF"/>
      <stop offset="1" stop-color="#9DCEFF"/>
    </linearGradient>
    <clipPath id="clip0_1504_1243">
      <rect width="138" height="29" fill="white"/>
    </clipPath>
  </defs>
</svg>