<svg width="138" height="29" viewBox="0 0 138 29" fill="none" xmlns="http://www.w3.org/2000/svg">
<g clip-path="url(#clip0_511_6117)">
<path d="M35.0643 12.0599C35.0643 6.92947 38.0639 4.58398 42.0043 4.58398C44.532 4.58398 46.6209 5.65511 47.7992 7.70123C48.9775 5.65511 51.0333 4.58398 53.594 4.58398C57.5345 4.58398 60.534 6.92947 60.534 12.0599V21.5819H56.8943V12.0599C56.8943 9.17609 55.3794 7.94017 53.2574 7.94017C51.1354 7.94017 49.6508 9.24749 49.6508 12.0599V21.5819H46.0138V12.0599C46.0138 9.24475 44.4299 7.94017 42.341 7.94017C40.2521 7.94017 38.704 9.17883 38.704 12.0599V21.5819H35.0643V12.0599Z" fill="#05051E"/>
<path d="M63.161 13.4581C63.161 8.19309 66.867 4.57324 72.1541 4.57324C77.3777 4.57324 81.0146 8.09422 81.0146 13.4251V21.5821H77.6785V18.1628C76.6354 20.7115 74.2761 22.0078 71.5139 22.0078C67.3305 22.0188 63.161 19.0362 63.161 13.4581ZM77.3777 13.2905C77.3777 10.1733 75.2888 7.92669 72.1209 7.92669C68.9531 7.92669 66.8311 10.1733 66.8311 13.2905C66.8311 16.4078 68.9558 18.6764 72.1209 18.6764C75.286 18.6764 77.3777 16.4188 77.3777 13.3015V13.2905Z" fill="#05051E"/>
<path d="M83.6416 13.3013C83.6416 8.2725 87.3475 4.58398 92.6015 4.58398C97.0829 4.58398 100.386 7.26454 101.228 11.1206H97.5547C96.7793 9.19806 94.994 7.93743 92.6015 7.93743C89.4364 7.93743 87.3144 10.184 87.3144 13.3013C87.3144 16.4185 89.4364 18.6761 92.6015 18.6761C94.994 18.6761 96.7793 17.4018 97.5547 15.4902H101.228C100.4 19.3353 97.0884 22.0296 92.6015 22.0296C87.3475 22.0186 83.6416 18.3301 83.6416 13.3013Z" fill="#05051E"/>
<path d="M103.855 11.8923C103.855 6.96243 106.785 4.58398 111.098 4.58398C115.411 4.58398 118.306 6.96243 118.306 11.961V12.0846H114.702V11.8923C114.702 9.04151 113.253 7.93743 111.098 7.93743C108.943 7.93743 107.492 9.03602 107.492 11.8923V21.5819H103.855V11.8923Z" fill="#05051E"/>
<path d="M138 12.128C138 13.6385 137.939 15.1299 137.374 16.5525C136.206 19.4995 134.002 21.2215 130.916 21.8258C129.468 22.0871 127.99 22.1518 126.523 22.018C125.277 21.929 124.053 21.6425 122.898 21.1693C122.308 20.9549 121.781 20.5999 121.362 20.1354C120.943 19.6709 120.645 19.1112 120.494 18.5053C120.284 17.6458 120.146 16.7702 120.083 15.8879C120.011 15.009 120.03 14.1191 120.044 13.2348C120.066 11.5567 120.676 9.11508 121.794 7.9286C122.808 6.57053 124.261 5.60085 125.908 5.18213C127.255 4.85314 128.631 4.65538 130.017 4.59164C131.146 4.53781 132.276 4.55616 133.403 4.64657C135.61 4.83333 136.957 5.95114 137.52 8.07142C137.605 8.3544 137.666 8.64371 137.705 8.93656C137.905 9.98855 138.004 11.0572 138 12.128ZM134.239 13.4572C134.239 10.4032 132.487 8.35705 129.664 7.98353C128.654 7.83013 127.622 7.97782 126.696 8.40797C125.771 8.83812 124.995 9.53144 124.465 10.4004C123.89 11.3992 123.637 12.5496 123.739 13.6962C123.888 15.6874 124.733 17.2666 126.609 18.1235C128.485 18.9804 130.4 18.8843 132.128 17.6868C133.651 16.6349 134.195 15.0749 134.239 13.4572Z" fill="#05051E"/>
<path d="M0 22.2135C0 18.2998 2.88362 15.4297 6.97312 15.4297C11.0626 15.4297 13.949 18.2998 13.949 22.2135C13.949 26.1272 11.0654 29 6.97312 29C2.88086 29 0 26.1272 0 22.2135Z" fill="url(#paint0_linear_511_6117)"/>
<path d="M14.2719 0C7.01451 0 1.89573 5.09196 1.89573 12.0378C1.89334 13.0397 2.00629 14.0386 2.23238 15.015C3.66768 14.1729 5.30714 13.7379 6.97311 13.7571C12.0008 13.7571 15.6461 17.3028 15.6461 22.2135C15.6467 22.8218 15.5884 23.4289 15.4722 24.0261C22.0756 23.4961 26.6452 18.5936 26.6452 12.0378C26.6452 5.09196 21.5237 0 14.2719 0Z" fill="url(#paint1_linear_511_6117)"/>
</g>
<defs>
<linearGradient id="paint0_linear_511_6117" x1="2.02268" y1="17.2836" x2="11.8796" y2="27.1899" gradientUnits="userSpaceOnUse">
<stop stop-color="#FDBB39"/>
<stop offset="0.11" stop-color="#FFAC5C"/>
<stop offset="0.22" stop-color="#FFA180"/>
<stop offset="0.33" stop-color="#FF9DA5"/>
<stop offset="0.44" stop-color="#FF9DC7"/>
<stop offset="0.56" stop-color="#FFA7E5"/>
<stop offset="0.67" stop-color="#EFB4FB"/>
<stop offset="0.78" stop-color="#D1C1FF"/>
<stop offset="0.89" stop-color="#B2C7FF"/>
<stop offset="1" stop-color="#9DCEFF"/>
</linearGradient>
<linearGradient id="paint1_linear_511_6117" x1="6.12044" y1="2.66133" x2="23.6098" y2="20.2333" gradientUnits="userSpaceOnUse">
<stop stop-color="#FDBB39"/>
<stop offset="0.11" stop-color="#FFAC5C"/>
<stop offset="0.22" stop-color="#FFA180"/>
<stop offset="0.33" stop-color="#FF9DA5"/>
<stop offset="0.44" stop-color="#FF9DC7"/>
<stop offset="0.56" stop-color="#FFA7E5"/>
<stop offset="0.67" stop-color="#EFB4FB"/>
<stop offset="0.78" stop-color="#D1C1FF"/>
<stop offset="0.89" stop-color="#B2C7FF"/>
<stop offset="1" stop-color="#9DCEFF"/>
</linearGradient>
<clipPath id="clip0_511_6117">
<rect width="138" height="29" fill="white"/>
</clipPath>
</defs>
</svg>
